<?xml version="1.0" encoding="utf-8"?>
<!-- Generator: Adobe Illustrator 28.3.0, SVG Export Plug-In . SVG Version: 6.00 Build 0)  -->
<svg version="1.1"
	 id="svg2" xmlns:rdf="http://www.w3.org/1999/02/22-rdf-syntax-ns#" xmlns:inkscape="http://www.inkscape.org/namespaces/inkscape" xmlns:svg="http://www.w3.org/2000/svg" xmlns:sodipodi="http://sodipodi.sourceforge.net/DTD/sodipodi-0.dtd" xmlns:cc="http://creativecommons.org/ns#" xmlns:dc="http://purl.org/dc/elements/1.1/"
	 xmlns="http://www.w3.org/2000/svg" xmlns:xlink="http://www.w3.org/1999/xlink" x="0px" y="0px" viewBox="0 0 186 161.8"
	 style="enable-background:new 0 0 186 161.8;" xml:space="preserve">
<style type="text/css">
	.st0{fill:#0D597F;}
</style>
<sodipodi:namedview  bordercolor="#666666" borderopacity="1" fit-margin-bottom="0" fit-margin-left="0" fit-margin-right="0" fit-margin-top="0" gridtolerance="10" guidetolerance="10" id="namedview4" inkscape:current-layer="g10" inkscape:cx="-197.05676" inkscape:cy="-80.4375" inkscape:pageopacity="0" inkscape:pageshadow="2" inkscape:window-height="964" inkscape:window-maximized="0" inkscape:window-width="1595" inkscape:window-x="276" inkscape:window-y="233" inkscape:zoom="0.33333333" objecttolerance="10" pagecolor="#ffffff" showgrid="false">
	</sodipodi:namedview>
<g id="g10" transform="matrix(1.25,0,0,-1.25,-267.55675,592.22537)" inkscape:groupmode="layer" inkscape:label="Alpine_Linux_logo_v4">
	<g id="g56" transform="translate(268.1394,393.2718)">
		<path id="path58" inkscape:connector-curvature="0" class="st0" d="M0,0v15.7L-11.3,4.4c1.2-0.8,2.4-1.5,3.4-2.1
			c1.1-0.6,2.1-1,3-1.3C-3.9,0.6-3,0.4-2.2,0.2C-1.4,0.1-0.7,0,0,0 M57.8,1.3c0,0,0.1-0.1,0.3-0.2c0.2-0.1,0.5-0.3,0.9-0.5
			c0.4-0.2,0.9-0.3,1.5-0.4C61.1,0,61.8,0,62.6,0C63.2,0,64,0,64.8,0.2c0.8,0.1,1.7,0.4,2.6,0.7c1,0.3,2,0.8,3.1,1.3
			c1.1,0.6,2.3,1.3,3.5,2.1l-8.6,8.4L37,41.2L24.5,28.8L7.7,46.1L-34.5,4.4c1.2-0.9,2.4-1.6,3.5-2.1c1.1-0.6,2.1-1,3.1-1.3
			c1-0.3,1.8-0.6,2.6-0.7c0.8-0.1,1.5-0.2,2.2-0.2c0.8,0,1.5,0.1,2.1,0.2c0.6,0.1,1.1,0.3,1.5,0.4c0.4,0.2,0.7,0.3,0.9,0.5
			c0.2,0.1,0.3,0.2,0.3,0.2L0.8,20.4l6.8,6.5L26.5,8.1l6.6-6.8c0,0,0.1-0.1,0.3-0.2c0.2-0.1,0.5-0.3,0.9-0.5
			c0.4-0.2,0.9-0.3,1.5-0.4C36.4,0,37.1,0,37.9,0c0.7,0,1.4,0.1,2.2,0.2c0.8,0.1,1.7,0.4,2.6,0.7c1,0.3,2,0.8,3.1,1.3
			c1.1,0.6,2.3,1.3,3.5,2.1L34.2,19.2L37,22L50.1,8.9L57.8,1.3 M57.6,80.3l37.2-64.5L57.6-48.6h-74.5l-37.2,64.5l37.2,64.5
			C-16.9,80.3,57.6,80.3,57.6,80.3z"/>
	</g>
	<g id="g60" transform="translate(302.5041,412.251)">
		<path id="path62" inkscape:connector-curvature="0" class="st0" d="M0,0l-9.9,9.9l0.7,0.7l10-9.9L0,0z"/>
	</g>
</g>
</svg>
