<?xml version="1.0" encoding="utf-8"?>
<!-- Generator: Adobe Illustrator 28.3.0, SVG Export Plug-In . SVG Version: 6.00 Build 0)  -->
<svg version="1.1" id="Layer_1" xmlns="http://www.w3.org/2000/svg" xmlns:xlink="http://www.w3.org/1999/xlink" x="0px" y="0px"
	 viewBox="0 0 33.1 35" style="enable-background:new 0 0 33.1 35;" xml:space="preserve">
<style type="text/css">
	.st0{fill-rule:evenodd;clip-rule:evenodd;fill:#8061A9;}
	.st1{fill-rule:evenodd;clip-rule:evenodd;fill:#F17323;}
	.st2{fill-rule:evenodd;clip-rule:evenodd;fill:#F8C517;}
	.st3{fill-rule:evenodd;clip-rule:evenodd;fill:#CADD72;}
	.st4{fill-rule:evenodd;clip-rule:evenodd;fill:#E82629;}
	.st5{fill-rule:evenodd;clip-rule:evenodd;fill:#98C93E;}
	.st6{fill-rule:evenodd;clip-rule:evenodd;fill:#628AC6;}
	.st7{fill-rule:evenodd;clip-rule:evenodd;fill:#363736;}
</style>
<path class="st0" d="M29.3,18.8h-5.1l-2.6,4.5l2.6,4.5h5.1l2.6-4.5L29.3,18.8z"/>
<path class="st1" d="M29.3,6.8h-5.1l-2.6,4.5l2.6,4.5h5.1l2.6-4.5L29.3,6.8z"/>
<path class="st2" d="M19.1,1.1H14l-2.6,4.5l2.6,4.5h5.1l2.6-4.5L19.1,1.1z"/>
<path class="st3" d="M8.8,6.8H3.7l-2.6,4.5l2.6,4.5h5.1l2.6-4.5L8.8,6.8z"/>
<path class="st4" d="M19.1,12.8H14l-2.6,4.5l2.6,4.5h5.1l2.6-4.5L19.1,12.8z"/>
<path class="st5" d="M8.8,18.8H3.7l-2.6,4.5l2.6,4.5h5.1l2.6-4.5L8.8,18.8z"/>
<path class="st6" d="M19.1,24.5H14L11.4,29l2.6,4.5h5.1l2.6-4.5L19.1,24.5z"/>
<path class="st7" d="M18.8,21.1h-4.6l-2.3-3.9l2.3-4h4.6l2.3,4L18.8,21.1z M19.6,11.7h-6.3l-3.1,5.4l3.1,5.4h6.3l3.2-5.4L19.6,11.7z
	"/>
<path class="st7" d="M13.4,23.4l-3.1,5.4l3.1,5.4h6.3l3.2-5.4l-3.2-5.4H13.4z M11.9,28.8l2.3-4h4.6l2.3,4l-2.3,3.9h-4.6L11.9,28.8z"
	/>
<path class="st7" d="M13.4,0l-3.1,5.4l3.1,5.4h6.3l3.2-5.4L19.6,0H13.4z M11.9,5.4l2.3-4h4.6l2.3,4l-2.3,3.9h-4.6L11.9,5.4z"/>
<path class="st7" d="M23.7,17.7l-3.1,5.4l3.1,5.4h6.3l3.2-5.4l-3.2-5.4H23.7z M22.2,23.1l2.3-4h4.6l2.3,4L29.1,27h-4.6L22.2,23.1z"
	/>
<path class="st7" d="M23.7,5.7l-3.1,5.4l3.1,5.4h6.3l3.2-5.4l-3.2-5.4H23.7z M22.2,11.1l2.3-4h4.6l2.3,4l-2.3,3.9h-4.6L22.2,11.1z"
	/>
<path class="st7" d="M3.1,17.7L0,23.1l3.1,5.4h6.3l3.2-5.4l-3.2-5.4H3.1z M1.7,23.1l2.3-4h4.6l2.3,4L8.6,27H4L1.7,23.1z"/>
<path class="st7" d="M3.1,5.7L0,11.1l3.1,5.4h6.3l3.2-5.4L9.4,5.7H3.1z M1.7,11.1l2.3-4h4.6l2.3,4l-2.3,3.9H4L1.7,11.1z"/>
</svg>
