<?xml version="1.0" encoding="utf-8"?>
<!-- Generator: Adobe Illustrator 28.3.0, SVG Export Plug-In . SVG Version: 6.00 Build 0)  -->
<svg version="1.1" id="Layer_1" xmlns="http://www.w3.org/2000/svg" xmlns:xlink="http://www.w3.org/1999/xlink" x="0px" y="0px"
	 viewBox="0 0 600 600" enable-background="new 0 0 600 600" xml:space="preserve">
<g>
	<path fill="#2C4451" d="M447.6,152.4c1.7-1.8,3.1-3.4,4.7-4.7c2.1-1.7,4.6-2.2,7.3-1.9c0.6,0.1,1.1,0.1,1.7,0.2
		c1.4,0.3,2.1-0.3,2.8-1.4c5.2-8.8,12-16.1,20.2-22.2c3.3-2.5,6.9-4.4,11-5.4c6.4-1.4,11.7,0.3,16,5.2c0.8,0.9,1.6,2,2.3,3
		c1.5,2.2,2.2,4.7,2.4,7.4c0.3,5.7-1.9,10.1-5.6,14.1c-6.6,7.2-14.8,12.1-23.6,16c-2.2,1-4.5,1.8-6.8,2.6c-0.8,0.3-1.2,0.7-1.2,1.6
		c-0.3,3.9-1.4,7.5-4.8,9.8c-1.4,0.9-3,1.6-4.7,2.5c0.8,1.3,1.7,2.8,2.7,4.2c12.1,19.5,20.8,40.5,25.8,62.9
		c1.4,6.5,2.6,13.1,3.3,19.8c1.1,10.5,1.6,21.1,1.1,31.7c-0.3,5-0.6,10.1-1,15.1c-0.1,1.8-0.5,3.6-0.7,5.4c1.6,0.2,3.1,0.3,4.6,0.5
		c3.8,0.4,6.4,2.6,8.1,5.9c1.1,2.1,1.1,2,3.4,1.6c0.8-0.1,1.5-0.2,2.3-0.2c6.2,0.1,12.5-0.1,18.7,0.5c7.7,0.8,15.1,2.8,21.1,8.2
		c4.1,3.7,5.3,8.4,4.6,13.7c-0.4,3.2-1.3,6.1-3.1,8.8c-2.8,4.1-7,6-11.8,6.7c-0.3,0-0.6,0-0.8,0c-2.1,0.2-2.1,0.2-2.1,2.4
		c-0.1,18.1-0.3,36.2-0.3,54.2c0,1.4-0.4,2.1-1.7,2.6c-7.4,2.5-14.9,5-22.3,7.6c-2.2,0.7-4.4,1.4-7,2.3c2.3,1.9,4.5,3.6,6.6,5.3
		c1.3,1.1,2.7,2.2,3.9,3.5c1.2,1.2,1.2,2.2,0.4,3.3c-0.8,1.1-2,1.3-3.3,0.4c-2.6-1.8-5.1-3.7-7.6-5.7c-1.7-1.3-3.4-2.7-5.1-4.1
		c-0.8-0.6-1.6-1-2.7-0.9c-0.9,0.1-1.8,0-2.7,0.1c-6.5,0.8-12.8-0.4-19-2.4c-10.1-3.3-20.3-6.4-30.4-9.6c-1.4-0.4-2.2-0.2-3.1,0.8
		c-6,6.2-12,12.4-18.6,17.9c-8.9,7.5-18.3,14.3-28.3,20.2c-0.5,0.3-0.9,0.6-1.5,1c0.4,0.5,0.8,1,1.2,1.5c3.2,3.9,4.2,8.2,2,12.8
		c-0.6,1.2-0.3,1.8,0.5,2.7c7.2,7.2,13.2,15.2,17.2,24.6c1.9,4.5,3.3,9.2,2.9,14.2c-0.4,5-2.8,8.9-6.9,11.7
		c-8.6,5.9-18.2,4.3-24.6-4c-4.2-5.5-6.8-11.8-8.9-18.3c-1.8-5.5-2.8-11.2-3.4-17c-0.1-1-0.4-1.3-1.4-1.6c-5.2-1.3-8.3-4.6-9.1-9.9
		c-0.1-0.6-0.4-1.2-0.6-2c-23.2,8.2-46.9,12.3-71.5,12c-24.5-0.3-48.2-5-71.1-13.8c-0.2,1.1-0.4,2.2-0.5,3.2
		c-0.7,4.8-3.6,7.7-8.1,9.2c-2.4,0.8-2.3,0.7-2.5,3.2c-0.7,7.3-2.6,14.4-5.3,21.2c-2,5-4.5,9.8-8.1,13.9c-1.1,1.2-2.4,2.4-3.7,3.4
		c-2.7,2.1-5.8,2.6-9.2,2.7c-5.4,0.1-9.6-2.2-13.3-5.7c-3.8-3.6-4.3-8.3-4-13.2c0.3-4.5,1.9-8.5,3.8-12.5c4-8.3,9.4-15.5,15.9-22
		c1.5-1.5,1.3-1.5,0.7-3.5c-1.4-4.4-1.4-8.7,2.1-12.3c0.7-0.8,1.5-1.5,2.3-2.3c-0.4-0.3-0.7-0.7-1.1-0.9
		c-16.1-9.8-30.2-21.9-43.1-35.6c-1.1-1.1-2-1.3-3.4-0.8c-10,3.2-20,6.3-30,9.4c-1.2,0.4-1.8,0.9-1.6,2.2c0.2,1-0.2,1.7-1,2.3
		c-15.9,12.6-31.8,25.2-47.8,37.8c-0.8,0.6-1.7,1.2-2.6,1.8c-1.1,0.7-2.3,0.5-3-0.4c-0.9-1-0.9-2.1,0.2-3.2c1.3-1.3,2.7-2.5,4.1-3.6
		c12.1-9.7,24.3-19.4,36.4-29.1c2.2-1.8,4.5-3.6,7.1-5.7c-1.3,0-2.2,0-3,0c-5.1,0.2-10-0.6-14.9-1.9c-1.1-0.3-1.8-0.1-2.7,0.5
		c-3.4,2.7-6.9,5.3-10.3,7.9c-0.9,0.7-1.9,1.2-2.8,1.8c-0.9,0.5-1.8,0.5-2.5-0.3c-0.8-0.8-1.2-1.8-0.6-2.8c0.5-0.8,1.2-1.6,1.9-2.2
		c2.3-1.9,4.7-3.8,7-5.7c0.6-0.5,1.1-1,2-1.7c-2-0.7-3.8-1.4-5.6-2c-4-1.3-7.9-2.6-11.9-3.9c-1.3-0.4-1.9-0.9-1.8-2.4
		c0.1-6.4,0-12.8-0.1-19.1c-0.1-13.7-0.2-27.3-0.2-41c0-0.7,0-1.4,0-2.3c-1.9,0.3-3.6,0.5-5.3,0.7c-3.8,0.5-7.5,0.6-11.2-0.4
		c-6.3-1.6-10.1-5.8-11.6-12c-2.2-8.7,0.7-15.4,8.5-19.8c4.5-2.6,9.4-3.8,14.4-4.7c7-1.2,14-0.8,21-0.8c1,0,2.1,0.2,3.1,0.4
		c1.2,0.2,1.8-0.1,2.4-1.3c1.4-3,3.7-5.4,7.1-6c2.2-0.4,4.6,0,6.9,0.1c0.4,0,0.8,0.1,1.5,0.2c-0.2-2.1-0.4-4.1-0.6-6.1
		c-0.3-3.3-0.7-6.6-0.7-9.8c-0.1-8.1-0.2-16.3,0-24.4c0.2-5.4,0.9-10.9,1.7-16.2c1.3-8.7,3.2-17.2,5.6-25.7
		c5.4-19,13.5-36.9,24.2-53.5c0.6-0.9,1.2-1.9,1.7-2.9c0.1-0.2,0.3-0.5,0.5-0.9c-0.7-0.2-1.3-0.5-2-0.6c-5-0.8-8.9-5.3-9-11.1
		c0-1.6-0.6-2-2-2.5c-11.2-4-21.5-9.4-29.7-18.2c-2.8-3-4.8-6.3-5.6-10.4c-0.5-2.3-0.6-4.6,0.2-6.8c2-6,5.6-10.8,12-12.7
		c4.8-1.4,9.4-0.4,13.8,1.7c4.2,2,7.8,4.9,11.2,8c5.8,5.3,10.9,11.3,14.8,18.1c0.6,1,1.1,1.2,2.3,1c6.6-1.4,12.1,2.3,13.6,7.5
		c0.1,0.3,0.3,0.5,0.5,0.8c2.9-2.7,5.7-5.4,8.5-8.1c22.2-21.1,48-36.1,77.1-45.3c9.6-3,19.3-5.3,29.2-6.7c4.1-0.6,8.2-1.1,12.2-1.6
		c2-0.3,2.1-0.3,1.3-2.3c-1.4-3.2-1.3-6.3,0.2-9.3c0.8-1.6,2.1-3,3.3-4.2c0.7-0.8,1-1.3,0.6-2.3c-2.1-5.7-3.6-11.6-4.3-17.6
		c-0.8-7.5-1.4-15.1,1.1-22.4c2.4-7.1,8.4-12.2,18.1-11.3c9.8,0.9,14.1,7.4,15.6,15.4c1.2,6.7,0.7,13.5-0.3,20.3
		c-0.8,5.3-2.1,10.5-3.9,15.5c-0.4,1.2-0.3,1.9,0.7,2.7c4.3,3.6,5.4,8.3,3.4,13.6c-0.1,0.3-0.2,0.5-0.3,0.8c-0.4,0.9,0,1.2,0.9,1.3
		c3.3,0.4,6.7,0.8,10,1.2c7.2,0.9,14.3,2.4,21.3,4.2c24.2,6.2,46.5,16.5,67,30.9c9.9,7,18.9,15.1,27.5,23.7
		C446.6,151.1,447.1,151.8,447.6,152.4z"/>
	<path fill="#2D4451" d="M303,556.8c0,8.4,0,16.8,0,25.2c0,2.3-0.2,4.6-0.3,6.9c-0.1,1.4-1.2,2.5-2.4,2.4c-1.2,0-2.2-1.1-2.3-2.5
		c-0.1-3.3-0.3-6.6-0.4-9.9c0-14.9,0-29.8,0-44.8c0-3.1,0.2-6.2,0.3-9.2c0.1-1.7,0.9-2.6,2.3-2.6c1.4,0,2.3,0.9,2.3,2.6
		c0.2,10.3,0.3,20.6,0.4,30.9C303,556.3,303,556.6,303,556.8C303,556.8,303,556.8,303,556.8z"/>
	<path fill="#2D4451" d="M481.8,437.4c0.2-2.1,1.7-3,3.5-1.8c2.8,1.8,5.5,3.7,8,5.7c13.8,11,27.6,22.1,41.5,33.1
		c0.4,0.3,0.9,0.7,1.3,1.1c0.9,0.8,0.9,1.8,0.4,2.9c-0.7,1.4-2.1,1.8-3.4,0.9c-3.4-2.5-6.8-5-10-7.6c-13.2-10.5-26.3-21-39.5-31.6
		C482.6,439.4,481.7,438.8,481.8,437.4z"/>
	<path fill="#2C4451" d="M11.4,220.1c2.5,0.6,5.4,1.2,8.2,1.8c12,2.7,24.1,5.5,36.1,8.3c5.6,1.3,11.2,2.6,16.8,3.9
		c0.7,0.2,1.5,0.5,2,0.9c0.9,0.8,0.8,1.9,0.4,2.9c-0.4,0.9-1.2,1.3-2.2,1.1c-2.5-0.5-5.1-0.9-7.6-1.4c-14.6-3.3-29.3-6.6-43.9-10
		c-3.7-0.9-7.4-1.8-11.1-2.9c-1.9-0.5-2.4-1.2-2.2-2.5C8.3,220.8,9.4,220,11.4,220.1z"/>
	<path fill="#2C4451" d="M405,81.6c-2.4-0.1-3.4-1.8-2.5-3.7c5.4-11.5,10.9-23,16.4-34.5c3.4-7.1,6.9-14.1,10.3-21.2
		c0.2-0.5,0.5-1,0.8-1.5c0.9-1.7,2-2.1,3.6-1.4c1.4,0.7,1.7,1.8,0.9,3.5c-3.7,7.8-7.3,15.6-11.1,23.4c-5.3,10.8-10.6,21.6-15.9,32.4
		c-0.3,0.6-0.5,1.3-1,1.8C406,81,405.3,81.4,405,81.6z"/>
	<path fill="#2C4451" d="M592.5,222.5c1.6,0,2.7,0.8,2.9,2.1c0.3,1.5-0.2,2.2-1.9,2.7c-5.1,1.3-10.1,2.5-15.2,3.7
		c-12.1,2.8-24.2,5.5-36.4,8.2c-3.5,0.8-7.1,1.4-10.6,2.2c-1.1,0.2-1.9-0.1-2.6-0.9c-1.1-1.4-0.9-2.5,0.8-3.1
		c2.7-0.9,5.4-1.8,8.2-2.5c17.2-4,34.5-7.9,51.8-11.8C590.5,222.8,591.6,222.7,592.5,222.5z"/>
	<path fill="#2C4451" d="M173.5,17.9c0.4,0.4,1.2,1,1.6,1.7c1.9,3.5,3.7,7.1,5.4,10.6c7.2,15,14.3,30,21.4,45
		c0.3,0.7,0.6,1.4,0.9,2.1c0.5,1.3,0,2.4-1.1,3c-1,0.5-2.1,0.2-2.8-1c-0.9-1.5-1.8-3-2.5-4.6c-8.4-17.4-16.7-34.9-25.1-52.3
		c-0.2-0.4-0.4-0.7-0.5-1.1C169.9,19.6,171.1,17.9,173.5,17.9z"/>
	<path fill="#2D4451" d="M283.8,542c-0.2,5.7-0.4,11.5-0.5,17.2c0,1.2-0.7,1.9-1.7,2.1c-0.7,0.1-1.6-0.1-2.3-0.5
		c-0.4-0.3-0.6-1-0.7-1.6c-0.2-1.5-0.3-3.1-0.3-4.6c0-8.2,0-16.4,0-24.6c0-1.7,0.2-3.5,0.3-5.2c0.1-1.4,1-2.2,2.2-2.2
		c1.3,0,2.3,0.9,2.4,2.3c0.2,2.5,0.3,5,0.4,7.6c0.1,3.2,0,6.4,0,9.7C283.7,542,283.8,542,283.8,542z"/>
	<path fill="#2D4451" d="M499.1,476.6c-1-0.6-1.8-0.9-2.4-1.4c-5.2-4.1-10.5-8.2-15.7-12.3c-2.8-2.2-5.5-4.5-8.3-6.8
		c-0.8-0.7-1.6-1.4-2.3-2.2c-0.9-0.9-0.9-1.9-0.2-2.8c0.6-0.9,2-1.3,3-0.6c2.4,1.6,4.7,3.2,7,5c6.3,5,12.6,10.1,18.8,15.1
		c0.6,0.5,1.2,1,1.7,1.5c0.7,0.7,0.9,1.7,0.4,2.5C500.6,475.4,499.8,476,499.1,476.6z"/>
	<path fill="#2D4451" d="M131.8,450.9c-0.3,0.4-0.7,1.2-1.3,1.7c-2.6,2.3-5.3,4.6-8,6.7c-6.2,4.8-12.4,9.6-18.6,14.3
		c-1.7,1.3-3.4,0.6-3.9-1.4c-0.3-1.1,0.3-1.9,1.1-2.5c2.5-2.1,4.9-4.1,7.5-6.1c5.2-4.2,10.5-8.3,15.8-12.5c1.3-1,2.8-1.9,4.2-2.6
		C129.9,447.8,131.7,449.1,131.8,450.9z"/>
	<path fill="#2D4451" d="M562.1,212.8c-0.1,1.5-0.7,2.4-2.3,2.7c-10.9,2.4-21.8,4.9-32.7,7.3c-1.5,0.3-2.5-0.3-2.9-1.9
		c-0.4-1.5,0-2.3,1.7-2.8c4-1.1,8-2.2,12.1-3.1c6.2-1.4,12.3-2.7,18.5-4c1.2-0.2,2.3-0.4,3.5-0.4
		C561.3,210.5,562.1,211.4,562.1,212.8z"/>
	<path fill="#2D4451" d="M388,73.3c-2.7-0.1-3.7-1.6-2.8-3.5c4.7-10.1,9.5-20.1,14.3-30.2c0.8-1.7,1.8-2.2,3.1-1.8
		c1.8,0.5,2.4,1.8,1.7,3.5c-3.9,8.4-7.9,16.7-11.9,25.1c-0.9,1.9-1.8,3.8-2.8,5.6C389.1,72.6,388.3,73,388,73.3z"/>
	<path fill="#2D4451" d="M169.1,53.2c0.3,0.3,1.1,0.7,1.4,1.4c1,1.7,1.9,3.5,2.8,5.4c3.9,8.1,7.8,16.3,11.7,24.4
		c0.4,0.8,0.9,1.8,0.7,2.5c-0.2,0.8-1.2,1.6-2,1.9c-0.7,0.2-1.7-0.3-2.4-0.7c-0.4-0.2-0.6-0.8-0.8-1.2c-4.7-10-9.5-20-14.2-30
		C165.6,54.9,166.7,53.2,169.1,53.2z"/>
	<path fill="#2D4451" d="M44.8,207.8c1.6,0.4,3.6,0.8,5.6,1.3c8.8,2.1,17.6,4.2,26.4,6.2c0.3,0.1,0.7,0.2,1,0.3
		c1.6,0.6,2.1,1.5,1.7,2.8c-0.5,1.5-1.5,2.1-3,1.8c-7.5-1.6-15.1-3.3-22.6-4.9c-3.5-0.8-6.9-1.6-10.3-2.4c-1.6-0.4-2.2-1.4-2-2.9
		C41.8,208.5,42.7,207.8,44.8,207.8z"/>
	<path fill="#2D4451" d="M568.1,247.9c1.1,0,2.4,0.9,2.6,2.1c0.2,1.1-0.4,2.1-1.9,2.6c-3.4,1-6.8,1.9-10.3,2.7
		c-7.6,1.7-15.2,3.3-22.8,4.9c-0.5,0.1-1.1,0.1-1.6,0c-1.1-0.3-1.8-1.2-1.9-2.3c-0.1-1.1,0.8-1.8,1.8-2c2.5-0.7,4.9-1.5,7.4-2.1
		c8-1.8,16-3.6,23.9-5.4C566.3,248.2,567.1,248.1,568.1,247.9z"/>
	<path fill="#2D4451" d="M35.6,245.4c3.7,0.8,7.5,1.6,11.3,2.4c6.6,1.5,13.1,3.1,19.6,4.6c0.9,0.2,1.9,0.5,2.8,0.9
		c1.6,0.6,2.2,1.5,1.8,2.6c-0.4,1.4-1.8,2.2-3.3,1.9c-3.7-0.8-7.5-1.5-11.2-2.4c-6.6-1.5-13.1-3.1-19.6-4.6c-1-0.2-2-0.6-2.9-1
		c-0.9-0.4-1.7-1.1-1.4-2.3C33,246.2,34.3,245.3,35.6,245.4z"/>
	<path fill="#2D4451" d="M220.7,70.2c-0.7,0.6-1.3,1.6-2.1,2c-0.5,0.2-1.5-0.3-2.1-0.7c-0.4-0.3-0.7-0.9-0.9-1.4
		c-4.7-9.9-9.4-19.7-14.1-29.6c-0.3-0.7-0.5-1.6-0.3-2.4c0.2-1.1,1.1-1.8,2.1-1.7c0.7,0,1.6,0.6,2,1.3c1,1.5,1.8,3.2,2.6,4.8
		c4.1,8.5,8.1,17.1,12.2,25.6C220.2,68.7,220.4,69.3,220.7,70.2z"/>
	<path fill="#2D4451" d="M436.9,54.4c1.8,0.2,2.7,1.5,2,3.3c-1.7,4-3.5,8-5.4,12c-2.6,5.6-5.4,11.2-8.1,16.7
		c-0.4,0.8-0.8,1.6-1.3,2.4c-0.8,1.3-2,1.6-3.2,1c-1.1-0.5-1.5-1.6-1-3c1.8-4.1,3.6-8.2,5.5-12.2c2.9-6.2,6-12.3,9-18.4
		C434.9,55.1,435.6,54.3,436.9,54.4z"/>
	<path fill="#2D4451" d="M322.1,541.3c-0.2,5.8-0.3,11.9-0.6,18.1c-0.1,1.8-1.7,2.7-3.2,1.7c-0.5-0.3-0.9-1.1-1-1.7
		c-0.2-1.5-0.3-3.1-0.4-4.6c0-8.4,0-16.8,0-25.2c0-1.7,0.2-3.4,0.3-5c0.1-1.4,1-2.2,2.5-2.1c1.2,0.1,1.7,0.5,1.8,2
		C321.8,530,321.9,535.4,322.1,541.3z"/>
	<path fill="#E87170" d="M166.4,291.2c0.3-20.9,3.9-39.2,11.7-56.6c5.9-13.1,13.6-25,23.3-35.7c17.7-19.4,39.2-32.6,64.6-39.6
		c7.8-2.1,15.6-3.7,23.7-4.1c6.9-0.3,13.9-0.7,20.8-0.3c16,1,31.3,4.8,45.9,11.4c11.1,5,21.4,11.4,30.7,19.1
		c12.3,10.1,22.4,22.1,30.5,35.8c6.7,11.3,11.5,23.3,14.6,36c1.6,6.7,2.7,13.5,3.4,20.4c0.6,7.1,0.6,14.2,0.2,21.4
		c-0.4,6.8-1.5,13.5-2.9,20.1c-0.1,0.7-0.2,1.4-1.2,1.4c-5.1,0.1-9.9,1.7-14.7,3.2c-12.4,3.9-24.8,7.9-37.1,11.8
		c-6.2,2-12.6,2.5-19,1.1c-1.4-0.3-1.6-0.7-1.6-2c0.3-6.4-3.6-11.7-9.6-13c-1.7-0.4-3.6-0.1-5.4-0.2c-0.6,0-1.4-0.1-1.9-0.5
		c-6.3-5.1-13.6-7.8-21.4-9.7c-8.4-2-17-2.5-25.6-2c-9.8,0.6-19.3,2.5-28,7.1c-2.2,1.2-4.3,2.6-6.3,4.1c-0.9,0.7-1.7,1-2.9,0.9
		c-3.1-0.3-6.1,0.1-8.8,2c-4.1,3.1-6,7.1-5.3,12.2c0.1,1-0.1,1.5-1,1.5c-2.4,0-4.9,0.2-7.3,0c-6.5-0.5-12.4-3.1-18.6-5
		c-10.4-3.3-20.7-6.7-31.1-10c-4.5-1.4-9.2-1.8-13.9-1.6c-2,0.1-2.1,0.1-2.4-1.9c-0.9-5.5-1.8-11-2.5-16.6
		C166.6,297.9,166.5,293.6,166.4,291.2z"/>
	<path fill="#FDFDFD" d="M252.2,345.7c1.9,0.2,3.9,0.3,5.8,0.5c0.5,0.1,1.1,0.2,1.5,0.5c5.8,5.2,12.7,8,20.1,9.9
		c9.7,2.5,19.6,3.1,29.5,2.3c7.5-0.6,14.8-2.1,21.8-4.8c4.4-1.8,8.6-4,12.1-7.3c0.4-0.4,1.1-0.7,1.6-0.6c2.9,0.3,5.7-0.2,8.4-1.4
		c3.3,0.5,6.4,1.6,9.6,2.1c7.3,1.1,14.4-0.2,21.3-2.4c13.2-4.2,26.4-8.5,39.7-12.5c7.7-2.4,15.5-2.1,23.2,0.4
		c12.1,3.9,24.2,7.7,36.2,11.7c4.5,1.5,9.1,2.7,13.9,3.1c5.6,0.4,11-0.4,16.4-2.1c6.3-1.9,12.6-2.4,19.1-1c3,0.6,3.5,1.1,3.5,4.2
		c0,21.6,0,43.3,0,64.9c0,0.8,0,1.5-0.2,2.3c-0.4,1.1-1.3,1.4-2.3,1.7c-7.7,2.5-15.5,5-23.2,7.4c-8,2.5-15.9,1.9-23.7-0.7
		c-13.1-4.3-26.1-8.6-39.2-12.7c-9.3-2.9-18.5-2.6-27.7,0.5c-13,4.3-26.1,8.2-39,12.5c-8.3,2.7-16.5,2.6-24.8-0.1
		c-11.7-3.9-23.5-7.5-35.1-11.6c-11.1-3.9-22.1-4-33.3-0.1c-11.9,4.1-24,7.8-36,11.8c-8.2,2.7-16.3,2.6-24.5-0.1
		c-13.1-4.3-26.2-8.5-39.4-12.7c-9-2.9-18-2.7-27.1,0.2c-13.6,4.4-27.2,8.7-40.9,13c-7.7,2.4-15.5,2.4-23.1-0.1
		c-5.5-1.8-11.1-3.5-16.6-5.4c-1-0.3-2-0.6-2.5-1.7c-0.3-1-0.2-1.9-0.2-2.9c0-22.2,0-44.4,0-66.6c0-0.5,0-1,0-1.5
		c0.1-2.3,0.8-2.9,3.1-3.1c5-0.4,9.8,0.4,14.5,1.9c9.7,3.1,19.3,2.8,28.9-0.4c13-4.3,26-8.3,39-12.4c8.1-2.6,16.1-2.5,24.2,0.1
		c13.1,4.2,26.2,8.5,39.4,12.7c7.6,2.4,15.2,2.8,23,1.1C250.1,345.9,251.1,345.8,252.2,345.7z"/>
	<path fill="#B7DEE1" d="M457.4,171.3c0.1,0.2,0.2,0.3,0.4,0.5c0.4,0.3,0.5,0.9,0.9,1.2c0.1,0.2,0.2,0.3,0.4,0.5
		c0.4,0.3,0.5,0.9,0.9,1.2l0,0c0.4,0.4,0.4,0.9,0.9,1.2l0,0c0.3,0.6,0.7,1.2,1.2,1.7l0,0c0.4,0.4,0.4,0.9,0.9,1.2l0,0
		c0.3,0.4,0.4,0.9,0.8,1.3l0,0c4.4,6.9,8.7,13.9,12.3,21.2c9.6,19.6,15.7,40.3,18.5,61.9c1.4,11,1.7,22.1,1.3,33.1
		c-0.5,12.6-2.3,25.1-5.4,37.3c-0.2,0.8-0.3,1.7-1,2.3c-4.9-1.5-9.9-3.1-14.8-4.6c-6.9-2.2-13.7-4.4-20.5-6.6
		c-1.8-0.6-1.8-0.6-1.4-2.4c1.7-8.2,2.8-16.5,3.2-24.9c1.3-26.7-4-52-15.8-76c-6.4-12.9-14.4-24.6-24.2-35.2
		c-19.2-20.9-42.4-35.5-69.5-43.7c-10.1-3-20.5-5.1-31.1-5.8c-4.7-0.3-9.5-0.7-14.2-0.6c-22.8,0.3-44.5,5.2-65.1,15.1
		c-15.8,7.6-29.9,17.6-42.3,30c-20.2,20.4-33.8,44.6-40.6,72.5c-2.2,9.2-3.5,18.5-4,28c-0.8,14.2,0.5,28.2,3.6,42.1
		c0.2,0.9,0.2,1.4-0.8,1.7c-11.5,3.6-22.9,7.2-34.4,10.8c-0.7,0.2-1.5,0.3-2.3,0.4c-0.8-0.5-0.7-1.3-0.9-2.1
		c-2.3-10.2-3.8-20.5-4.5-30.9c-0.5-7.5-0.6-15-0.2-22.5c0.8-16.4,3.6-32.6,8.5-48.3c7.6-24,19.2-45.8,35.1-65.3
		c11.3-13.9,24.3-26,38.9-36.3c22.3-15.7,46.9-26.2,73.6-31.7c9.7-2,19.5-3.2,29.4-3.6c4.1-0.2,8.3-0.5,12.4-0.3
		c12.1,0.4,24.1,1.5,36,4.1c8.2,1.8,16.2,4.1,24.1,6.7c-6.6-2.3-13.3-4.3-20.1-5.9c-2.4-0.6-4.8-1-7.2-1.5c-0.7-0.2-1.8,0-1.9-1.2
		c3.8,0.7,7.6,1.3,11.3,2.3c22.2,5.5,42.8,14.7,61.7,27.5c14.3,9.7,27.2,21,38.5,34.2c0.1,0.2,0.3,0.3,0.4,0.5l0,0
		c0.1,0.1,0.3,0.3,0.4,0.4c0.3,0.3,0.5,0.6,0.8,0.9c0.4,0.1,0.2,0.6,0.5,0.7l0,0c0.1,0.2,0.2,0.3,0.4,0.4l0,0
		c0.1,0.2,0.3,0.3,0.4,0.5c0.1,0.2,0.3,0.3,0.4,0.5c0.3,0.1,0.2,0.6,0.5,0.7l0,0c0.2,0.4,0.5,0.6,0.8,0.9c0.7,0.9,1.4,1.7,2,2.6
		C456.9,170.4,456.9,171,457.4,171.3z"/>
	<path fill="#B7DEE1" d="M228.2,439.2c-0.5-1.7-1-3.5-1.6-5.3c2,0.4,4,0.8,6,1.2c5.2,0.9,10.3,0.7,15.4-0.4c1.5-0.3,2.8-0.2,4.2,0.3
		c9.1,3.2,18.5,5.4,28.1,6.8c9.6,1.4,19.2,1.9,28.9,1.5c15.2-0.7,30.1-3.5,44.5-8.7c1.4-0.5,2.8-0.5,4.3-0.2
		c6.4,1.6,12.9,1.7,19.3,0.2c0.3-0.1,0.5-0.1,1-0.1c-0.3,0.9-0.6,1.6-0.8,2.4c-2.3,8.7,4.7,15.8,11.3,15.8c0.3,0,0.6,0.1,0.8,0.1
		c1.5,0.2,3,0.5,4.6,0.3c6.2-0.8,9.7-5.8,8.3-12c-0.1-0.7-0.2-1.4-0.3-2.1c-0.6-1.6-0.8-3.5-1.7-4.9c-1.2-1.9-2.9-3.5-4.4-5.2
		c0.7-0.2,1.7-0.6,2.6-0.9c8.1-2.6,16.2-5.2,24.3-7.7c6.7-2.1,13.6-2.4,20.4-0.5c0.2,1-0.6,1.5-1.1,2.1c-15.3,16-32.7,29-52.4,39.2
		c-20.4,10.5-42,17.1-64.7,20.1c-11.4,1.5-22.9,1.8-34.4,1.3c-21.1-1-41.6-5.4-61.3-13.2c-18.2-7.2-34.9-17.1-50.7-28.7
		c-0.7-0.5-1.4-1.1-2-1.9c-0.1-0.2-0.2-0.3-0.3-0.5c-0.1-0.1-0.1-0.2-0.2-0.2c-0.2-0.2-0.3-0.4-0.5-0.5c-0.1-0.1-0.3-0.2-0.4-0.3
		c-0.1-0.1-0.2-0.2-0.3-0.3c-0.1-0.1-0.2-0.2-0.3-0.4c-0.2-0.3-0.4-0.5-0.7-0.6c-0.1-0.1-0.3-0.2-0.4-0.2c-0.3-0.1-0.6-0.3-0.9-0.4
		c-0.2-0.2-0.4-0.4-0.5-0.6c-2.3-3-5.2-5.4-7.8-8.1c-1-1.1-2.1-2.1-3.1-3.1c-0.5-0.5-1.3-1-0.9-1.9c7.8-3,15.8-3.6,23.8-1.2
		c8.6,2.6,17,5.4,25.6,8.2c0.3,0.1,0.6,0.3,1,0.4c-1.2,0.9-2.5,1.6-3.5,2.5c-3.8,3.6-5.1,8-3.5,13c1.6,5.1,5.3,7.9,10.5,8.7
		c0.6,0.1,1.1,0.1,1.7,0.1c6.2,0.9,10.6-1.1,12.4-6C229.3,444.5,229,441.8,228.2,439.2z"/>
	<path fill="#73A9B9" d="M157.5,323.6c-0.9-5.7-1.8-11.2-2.5-16.7c-0.5-4.4-0.8-8.8-0.9-13.2c-0.1-4.7-0.2-9.5,0.1-14.2
		c0.5-7.7,1.6-15.4,3.4-23c2.7-11.8,6.8-23.2,12.3-34c5.4-10.6,12.1-20.5,19.8-29.6c9.4-11,20.2-20.3,32.3-28.1
		c15.6-10,32.4-17,50.5-20.6c6-1.2,12.1-2.3,18.2-2.5c6.9-0.2,13.7-0.6,20.6-0.3c11.1,0.5,22,2.5,32.7,5.6
		c9.2,2.7,18.1,6.2,26.6,10.7c10.1,5.3,19.6,11.7,28.3,19.1c13,11.1,23.6,24,32.2,38.7c7.9,13.6,13.5,28.2,16.6,43.7
		c1.8,8.7,3,17.5,3,26.4c0,4.9,0.2,9.8-0.2,14.6c-0.5,6.8-1.3,13.6-2.8,20.3c-0.4,1.8-0.5,1.8-2.2,1.4c-2-0.5-4.1-1-6.1-1.3
		c-1.3-0.2-1.5-0.7-1.3-1.8c0.6-3.1,1.2-6.3,1.7-9.5c0.5-3,0.9-6.1,1.1-9.1c0.3-4.9,0.5-9.8,0.4-14.7c-0.4-11.3-1.9-22.5-5-33.4
		c-2.7-9.7-6.3-19.1-11.1-28c-4.7-8.9-10.3-17.1-16.7-24.8c-10.6-12.7-23.2-23.1-37.5-31.4c-12.4-7.2-25.7-12.3-39.7-15.2
		c-5.7-1.2-11.4-1.9-17.2-2.6c-4.6-0.5-9.3-0.8-14-0.7c-9.8,0.1-19.5,1.2-29.1,3.3c-12.3,2.8-24,7-35.1,12.9
		c-8.9,4.7-17.1,10.3-24.8,16.8c-10.7,9-19.9,19.4-27.5,31.2c-9,14-15.4,29.1-18.9,45.4c-1.2,5.5-1.8,11.1-2.6,16.7
		c-0.8,6-1,12.1-0.7,18.2c0.4,8.4,1.2,16.8,3.2,25.1c0.1,0.3,0,0.7,0.2,1c0.4,0.9,0,1.3-0.8,1.5C162,322.3,160,322.9,157.5,323.6z"
		/>
	<path fill="#72A7B7" d="M77.5,417.4c2,0.7,4,1.5,6.1,2.2c4.5,1.5,9,3,13.6,4.4c8,2.4,15.9,2,23.9-0.6c13.3-4.3,26.6-8.5,39.9-12.7
		c4.7-1.5,9.5-2.2,14.4-2.1c4.7,0.1,9.3,1.1,13.7,2.6c12.8,4.2,25.6,8.3,38.4,12.5c8,2.6,16.1,2.4,24.1-0.2c13-4.2,26-8.6,39-12.7
		c9.2-2.9,18.5-2.7,27.6,0.4c12.7,4.2,25.3,8.4,38,12.5c4.3,1.4,8.8,2.2,13.4,2c4.3-0.2,8.4-1.3,12.5-2.6
		c13.4-4.3,26.7-8.6,40.1-12.7c8.2-2.5,16.5-2.4,24.7,0.2c9.8,3.1,19.5,6.3,29.3,9.4c4.4,1.4,8.8,2.8,13.2,4.2
		c7.1,2.2,14.2,1.9,21.2-0.3c7.7-2.4,15.4-4.9,23.1-7.4c0.5-0.2,1-0.5,1.5-0.7c1.5-0.9,2.9-1.9,4.8-1.4c0.1,1.3,0,2.7,0.2,4
		c0.1,1.1-0.3,1.6-1.4,2c-6.1,1.9-12.2,3.9-18.3,5.9c-3.6,1.1-7.2,2.4-10.8,3.3c-8,2-16.1,1.6-23.9-0.9
		c-12.8-4.1-25.5-8.3-38.2-12.5c-4.1-1.4-8.4-2.3-12.7-2.4c-4.6-0.1-9,0.8-13.3,2.2c-12.8,4.1-25.7,8.2-38.5,12.3
		c-4.9,1.6-9.9,2.6-15,2.6c-4.7-0.1-9.3-0.8-13.8-2.3c-12.9-4.3-25.8-8.6-38.8-12.7c-7.8-2.5-15.7-2.5-23.5,0
		c-12.7,4.1-25.3,8.3-38,12.4c-4.6,1.5-9.3,2.5-14.2,2.5c-4.5,0.1-9-0.6-13.4-2c-10.6-3.4-21.2-6.9-31.9-10.3
		c-4.6-1.5-9.3-2.9-14.1-4c-6-1.4-11.9-0.7-17.7,1.1c-10.2,3.2-20.3,6.5-30.5,9.7c-4.8,1.5-9.6,3-14.4,4.3c-8,2.2-15.9,1.4-23.7-1.1
		c-6.6-2.1-13.1-4.3-19.7-6.4c-1.8-0.6-1.8-0.6-1.6-2.4c0.1-1,0.1-2.1,0.2-3.1C74.7,415.8,76.1,416.4,77.5,417.4z"/>
	<path fill="#B7DEE1" d="M292,353.5c-5.6-0.3-11.1-1.5-16.4-3.5c-0.3-0.2-0.6-0.1-0.8-0.3l0,0c-2.1-1.3-4.6-1.9-6.6-3.5
		c-1.2-0.9-2.5-1.8-3.1-3.3c1.5-1.9,2.8-3.8,3.4-6.2c1-4.1-0.1-7.7-2.5-11c1-1.8,2.8-2.7,4.4-3.7c5.6-3.3,11.7-4.9,18.1-5.7
		c6-0.7,11.9-1.6,17.9-1.7c9.7,0.4,18.9,2.5,27.5,7c1.2,0.6,2.2,1.5,3.3,2.2c0.8,0.5,0.7,1,0.1,1.7c-3.9,4.3-4.5,11-0.2,16.5
		c0.1,1.5-1.1,2-2.1,2.6c-6.4,4.5-13.6,6.7-21.2,8C306.7,353.9,299.3,354.1,292,353.5z"/>
	<path fill="#B7DEE1" d="M540.1,414.3c-1.6,0.5-3.2,0.9-4.8,1.4c0-0.8-0.1-1.7-0.1-2.5c0-21.8,0-43.6,0-65.4c0-2.4,0-2.5-2.4-3
		c-4.4-0.9-8.9-1.5-13.4-0.4c-4.1,1-8.2,2.1-12.4,2.8c-3.7,0.6-7.4,0.8-11.2,0.5c-8-0.8-15.3-4-22.9-6.3c-9.1-2.8-18.1-6-27.2-8.7
		c-7.3-2.2-14.7-2.4-22-0.1c-8,2.5-15.9,5-23.9,7.5c-7.2,2.3-14.4,4.7-21.8,6.6c-4.5,1.2-9.1,1.6-13.9,0.9c-3.1-0.4-6.2-1-9.2-1.8
		c-0.7-0.2-1.3-0.7-1.9-1c1.1-1,2.3-2.1,3.5-3c0.4-0.3,1.2-0.6,1.6-0.4c8.4,2.1,16.6,1.4,24.8-1.3c12.6-4.1,25.4-7.8,37.9-12
		c9.7-3.3,19.1-2.8,28.6,0.4c12.9,4.3,25.9,8.4,38.9,12.6c7.7,2.5,15.5,2.1,23.1-0.1c4.7-1.3,9.3-2.4,14.2-2.2
		c4.4,0.2,8.6,1,12.7,2.3c1.1,0.3,1.5,0.9,1.5,2.1c0,19.5,0,39,0,58.4C539.9,405.8,540,410,540.1,414.3z"/>
	<path fill="#B7DEE1" d="M77.5,417.4c-1.5-0.3-3-0.6-4.5-1c-0.1-1.4-0.3-2.8-0.3-4.2c0-9.3,0-18.6,0-28c0-14.1-0.1-28.2-0.1-42.3
		c0-2.3,0-2.4,2.3-2.8c6.9-1.3,13.9-0.9,20.5,1.3c9.2,3,18.3,2.5,27.4-0.5c12.9-4.2,25.9-8.2,38.7-12.4c8.9-2.9,17.6-2.6,26.4,0.2
		c13.2,4.3,26.3,8.5,39.5,12.8c5.7,1.9,11.5,2.2,17.4,1.4c1.3-0.2,2.3,0,3.4,1c1.1,1.1,2.7,1.7,4,2.6c-1.2,0.4-2.4,1-3.7,1.2
		c-3,0.4-5.9,0.9-8.9,0.9c-4.7,0-9.4-0.8-13.9-2.2c-12-3.9-24-7.8-36-11.6c-3.5-1.1-7.1-2.4-10.7-2.7c-4.6-0.5-9.4-0.5-13.9,0.9
		c-4.8,1.5-9.6,3-14.3,4.5c-10.4,3.3-20.7,6.7-31.1,9.8c-5.1,1.5-10.3,1.8-15.7,1.3c-4.3-0.4-8.3-1.7-12.4-2.7
		c-3.8-0.9-7.7-1.3-11.6-1.2c-2.2,0.1-2.4,0.3-2.4,2.4c0,15.1,0,30.3,0,45.4c0,7.8,0,15.7,0,23.5C77.6,415.9,77.5,416.7,77.5,417.4z
		"/>
	<path fill="#FBFBFB" d="M338.3,98.1c2.1,0.6,4.2,1.2,6.4,1.6c8.2,1.8,16.1,4.2,24,7c0.2,0.1,0.3,0.2,0.4,0.6
		c-0.5-0.1-1-0.2-1.5-0.3c-6.8-1.9-13.5-4-20.3-5.7c-5.2-1.3-10.5-2-15.7-2.9c-6.5-1-13-1.7-19.5-1.7c-4.6,0-9.2-0.4-13.8-0.3
		c-4.8,0.1-9.6,0.6-14.3,1.2c-5.8,0.7-11.6,1.5-17.3,2.5c-9.3,1.6-18.3,4.2-27.1,7.3c-9,3.2-17.8,7-26.2,11.5
		c-9.2,4.9-18,10.4-26.3,16.7c-3.7,2.8-7.2,5.8-10.6,8.8c-3.8,3.4-7.7,6.7-11.2,10.4c-4.7,5-9.1,10.2-13.5,15.4
		c-6.1,7.3-11.4,15.2-16,23.4c-3.8,6.8-7.1,13.9-10.4,21c-4.7,10.3-8,21.1-10.5,32.1c-1.1,5-1.9,10.1-2.8,15.1
		c-1,5.4-1.6,10.9-1.7,16.4c-0.1,7.5-0.6,15-0.3,22.4c0.3,7.9,1.1,15.8,2.8,23.6c0.9,4.1,1.5,8.2,2.3,12.3c-0.4,0.1-0.8,0.2-1.2,0.3
		c-1.1,0.3-1.5-0.3-1.7-1.2c-1-5.2-2.2-10.4-3.1-15.6c-1.4-8.8-2.1-17.6-2.3-26.5c-0.3-13.2,0.8-26.3,3.1-39.3
		c4.1-22.3,11.9-43.2,23.3-62.8c14.8-25.3,34.3-46.2,58.5-62.8c22.3-15.2,46.7-25.5,73.2-30.6c8.7-1.7,17.5-2.9,26.4-3.1
		c7.2-0.2,14.5-0.2,21.7,0c0.2,0,0.5,0,0.7,0c0.3,0,0.6,0,0.9,0c0.3,0,0.6,0,0.8,0c7.5,0.6,15,1.5,22.4,2.8
		C338.2,98,338.3,98,338.3,98.1z"/>
	<path fill="#72A7B7" d="M176.8,438.2c2.2,1.7,4.3,3.5,6.6,5.1c10.8,7.6,21.9,14.4,33.8,20.1c10,4.8,20.4,8.7,31.1,11.7
		c7.2,2,14.6,3.6,22,4.9c3.9,0.7,7.9,0.9,11.8,1.4c9.4,1.2,18.8,0.9,28.3,0.7c4.1-0.1,8.2-0.7,12.2-1.2c3.3-0.4,6.6-0.7,9.9-1.3
		c6.3-1.2,12.7-2.5,18.9-4.1c7.8-2,15.5-4.5,22.9-7.8c7.2-3.2,14.3-6.7,21.3-10.3c8.2-4.3,15.9-9.5,23.3-15.2
		c4.2-3.3,8.2-6.7,12.2-10.2c3.6-3.3,7.1-6.8,10.6-10.2c0.6-0.6,1.1-1.2,1.7-1.9c1.1,0.3,2.2,0.6,3.6,1c-0.5,0.6-0.8,1.1-1.2,1.4
		c-8.1,8.6-16.8,16.7-26.3,23.8c-12.5,9.3-25.8,17-40.1,23.1c-10.9,4.7-22,8.4-33.6,11c-5.9,1.3-11.9,2.3-17.9,3.2
		c-11.4,1.8-23,2-34.5,1.6c-4.5-0.1-8.9-0.7-13.3-1.1c-10-0.9-19.7-2.9-29.3-5.6c-9.6-2.6-19-6-28.2-10.1
		c-10.9-4.9-21.3-10.8-31.2-17.5c-7.8-5.3-15.3-11-22.2-17.6c-0.5-0.4-0.7-1.1-1.1-1.6c0.7-0.4,1.3-0.1,1.8,0.4
		c0.9,0.9,2,1.7,2.7,2.8c0,0.1,0.1,0.2,0.3,0.2c0.3,0.2,0.7,0.2,1,0.4l0,0c0.4,0.4,0.9,0.8,1.3,1.3l0,0c0.2,0.1,0.3,0.3,0.4,0.4l0,0
		c0.2,0.2,0.6,0.2,0.9,0.4l0,0C176.6,437.7,176.8,437.9,176.8,438.2z"/>
	<path fill="#73A9B9" d="M347,431.5c-29.3,8.9-58.6,9.1-88.1,0c1.3-0.4,2.5-0.9,3.8-1.3c2.7-0.9,5.4-1.5,7.9-2.6
		c2.7-1.2,5.2-0.2,7.8,0c4.4,0.5,8.9,1.1,13.3,1.5c3.6,0.3,7.3,0.4,10.9,0.4c9.5,0,18.8-1.2,28-3.1c0.7-0.1,1.4-0.3,2-0.1
		c4.8,1.5,9.5,3.1,14.3,4.7C347,431.2,347,431.3,347,431.5z"/>
	<path fill="#72A7B7" d="M97.7,122.4c2.8-3.2,6.5-3.6,10.2-2.6c10.1,2.8,16.2,9.7,18.7,19.7c1.3,5.2-1.6,10.2-6.8,12.2
		c-1.4,0.6-2.9,1-4.4,1.3c-1.4,0.3-2.7,0.2-4-0.7c-3.7-2.7-7.4-5.2-11.1-7.9c-1-0.8-1.8-1.9-2.7-2.9c0.1-0.8,0.8-1,1.3-1.3
		c5.7-3.2,6.5-12.3,0.3-16.4C98.7,123.5,97.9,123.3,97.7,122.4z"/>
	<path fill="#72A7B7" d="M183.5,525c-3-1.5-4.4-4.2-4.5-7.3c-0.5-8.3,2.6-15.3,9-20.6c1.3-1.1,2.7-2.2,4.2-3.1
		c5.4-3,10.6-2.7,14.8,2.4c0.6,0.8,1.1,1.6,1.6,2.4c1.5,2.5,1.9,4.9,0.8,7.7c-1.9,5-3.7,9.9-6.9,14.2c-1.1,0-1.6-0.8-2.2-1.4
		c-4.8-4.4-12.8-2.6-15.3,3.4C184.6,523.6,184.6,524.7,183.5,525z"/>
	<path fill="#72A7B7" d="M509.7,128.3c2.5,3.8,2,7.6-0.1,11.2c-2.9,5-6.9,9-12.4,11c-3,1.1-6.1,2.1-9.3,2.2
		c-7.2,0.2-11.9-4.3-11.9-11.6c0-5.2-0.5-3.9,3.1-7.7c3.1-3.2,6.4-6.1,10.1-8.4c0.6-0.4,1.2-0.6,1.8-0.9c0.8,0.5,0.8,1.4,1.2,2.1
		c2.6,6.3,10.5,8.1,15.6,3.5C508.3,129.2,508.7,128.4,509.7,128.3z"/>
	<path fill="#72A7B7" d="M304.6,25.9c4,0.5,6.9,2.6,8.6,6.2c3.1,6.9,3.3,13.9,0.2,20.9c-1.4,3.3-3.2,6.4-6.2,8.5
		c-3.5,2.5-7.2,2.2-10.9,0.5c-0.8-0.3-1.4-0.9-2.2-1.3c-3.8-1.9-4.3-5.4-4.5-9c-0.3-4-0.6-8.1,0-12.1c0.1-0.5,0.3-0.9,0.4-1.4
		c0.9-0.5,1.7,0,2.4,0.3c5.3,1.7,11.7-2,12.4-8.6C305,28.6,304.1,27.3,304.6,25.9z"/>
	<path fill="#72A7B7" d="M412,528.4c-3.8,1.7-7.2,0.5-10-2c-5.6-4.8-8.8-10.9-9-18.4c-0.1-2.9-0.1-5.7,0.9-8.5
		c1.6-4.4,5.3-7.9,11.8-7.1c0.5,0.1,1,0.1,1.5,0.1c2.7,0.3,4.8,1.3,6.3,3.8c2.5,4.3,5.1,8.5,6.7,13.3c0.2,0.5,0.2,0.9,0.3,1.4
		c-0.6,0.7-1.5,0.6-2.3,0.8c-6.9,1.5-10,8.1-6.8,14.3C411.6,526.9,412.3,527.5,412,528.4z"/>
	<path fill="#72A7B7" d="M43.6,344.6c-0.5-4.5,1.5-7.8,5-10.1c5.5-3.7,11.5-5.5,18.2-4.3c2.8,0.5,5.6,1.1,8.2,2.4
		c0.6,0.3,1.1,0.7,1.8,1.2c-2.6,0.7-5,1.3-7.2,2c-2.2,0.7-2.2,0.8-2.2,3.2c0,4.8,0,9.5,0,14.3c0,1.9,0,1.9-1.9,2.3
		c-2.2,0.5-4.3,1.1-6.6,0.7c-0.6-0.8-0.4-1.7-0.5-2.6c-0.1-7.1-5.8-11.4-12.7-9.5C45.1,344.4,44.4,344.8,43.6,344.6z"/>
	<path fill="#72A7B7" d="M489.4,336c0.6-2.8,1.2-5.6,1.7-8.4c0.9-4.8,1.8-9.6,2.4-14.4c0.6-4.6,1.1-9.3,1.3-13.9
		c0.3-7.2,0.6-14.4,0.3-21.6c-0.3-7.1-1.2-14.1-2.3-21.1c-2-12.3-5.1-24.4-9.4-36.1c-1.8-4.8-3.8-9.6-5.9-14.3
		c-3.7-8.5-8.2-16.5-13.3-24.2c-0.4-0.5-0.4-1.3-0.6-1.9c0.5,0.5,1,0.9,1.4,1.5c8.9,13.4,16,27.7,21.4,42.8
		c3.6,10.1,6.3,20.5,8.3,31.1c0.8,4.5,1.2,9.1,1.8,13.7c1.2,9.2,1.5,18.4,1.1,27.6c-0.2,5.8-0.8,11.7-1.6,17.5
		c-0.9,6.8-2.3,13.5-3.6,20.2C492,337,491.9,336.9,489.4,336z"/>
	<path fill="#E87170" d="M134.7,158.6c2.1-2.7,4.3-5.5,6.4-8.2c0.9-1.1,1.9-1.2,3.2-0.7c3.7,1.4,5.4,4.3,4.7,8.3
		c-0.4,2.3-1.1,4.4-2.7,6.2c-1.5,1.7-2.9,3.6-4.3,5.4c-2.1,2.6-5.1,3.2-7.8,1.7c-0.2-0.6,0-1.1,0.3-1.6c1.8-3.2,1.9-6.4,0.3-9.7
		C134.6,159.5,134.6,159.1,134.7,158.6z"/>
	<path fill="#E87170" d="M299.7,77.5c3.4,0,6.7-0.1,10.1,0c2.2,0,2.4,0.4,3,2.4c1.7,5.7-2.5,9.2-7.4,9.7c-3.5,0.3-7,0.1-10.5,0.1
		c-3,0-4.9-1.5-5.5-4.6c0.4-0.5,1-0.5,1.5-0.6c3.8-0.5,6.5-2.5,8-6C299.1,78.1,299.4,77.8,299.7,77.5z"/>
	<path fill="#E87170" d="M210.5,481c-3.1-1.5-6.2-2.8-9.2-4.4c-1.6-0.8-1.6-1.3-1.3-3.1c0.8-5.4,5.3-7.9,11.5-5.3
		c3,1.3,5.9,2.8,8.9,4.2c2.9,1.3,3.7,3.1,3,6.4c-0.6,0.3-1.2,0.1-1.8-0.1c-3.3-1.1-6.3-0.5-9,1.5C211.8,480.6,211.3,481,210.5,481z"
		/>
	<path fill="#E87170" d="M466.2,156.4c2.2,2.7,4.4,5.4,6.6,8.1c0.8,1,0.7,2,0,3.1c-2.1,3.2-5.2,4.4-8.4,3.1
		c-0.9-0.4-1.7-1.1-2.4-1.9c-3-3.6-5.9-7.3-8.9-10.8c-0.7-0.9-0.9-1.7-0.6-2.7c0.3-0.9,0.9-1.7,1.4-2.5c0.6,0,1.1,0.4,1.4,0.8
		c2.4,2.7,5.5,3.2,8.8,2.8C464.8,156.3,465.5,156,466.2,156.4z"/>
	<path fill="#E87170" d="M394.4,479.9c-3.1,1.5-6.2,3.1-9.4,4.6c-1.1,0.5-2.1,0.2-3-0.8c-2-2.3-3.6-5.4-1.2-8.7
		c0.6-0.8,1.4-1.5,2.3-2c3.9-1.9,7.8-3.7,11.7-5.7c2.9-1.5,3.6-1.4,5.8,1.2c-0.1,0.5-0.5,0.8-0.9,1.1c-3.2,2-4.7,4.9-4.9,8.7
		C394.8,478.9,394.8,479.4,394.4,479.9z"/>
	<path fill="#72A7B7" d="M557.1,351.9c-0.4,2.5-2,4.2-4.1,5.2c-2,1-4.3,1.4-6.5,2c-1.3,0.4-1.2-0.6-1.2-1.5c0-5.6-0.1-11.2,0-16.8
		c0-1.7-0.5-2.4-2-3.1c-5.2-2.4-10.6-3.9-16.3-4.2c-0.2,0-0.3-0.1-0.7-0.3c1.7-1.5,3.2-3,5.7-2.6c4.1,0.7,8.2,1.3,12.3,2.2
		c1.5,0.3,2.9,1.2,4.3,1.7c0.4,0.7-0.1,1.2-0.4,1.7c-3.7,6.7-0.2,13.8,7.3,14.8C556.2,351.3,556.9,351.1,557.1,351.9z"/>
	<path fill="#FBFBFB" d="M389.6,447.7c-4.2,0-7.5-3.3-7.5-7.4c0-4.1,3.5-7.4,7.6-7.4c4,0,7.3,3.3,7.4,7.4
		C397.1,444.3,393.8,447.7,389.6,447.7z"/>
	<path fill="#FBFBFB" d="M215.7,433.1c4,0,7.5,3.5,7.4,7.6c-0.1,4-3.4,7.4-7.4,7.4c-4,0.1-7.5-3.4-7.6-7.5
		C208.1,436.5,211.6,433.1,215.7,433.1z"/>
	<path fill="#FBFBFB" d="M346.6,341.2c-4,0-7.3-3.4-7.3-7.4c0-4.1,3.4-7.4,7.6-7.4c4.1,0,7.6,3.5,7.4,7.5
		C354.1,338,350.7,341.3,346.6,341.2z"/>
	<path fill="#FBFBFB" d="M256.3,341.2c-4.1,0-7.5-3.5-7.4-7.5c0.1-4.1,3.5-7.3,7.7-7.2c4,0,7.3,3.4,7.3,7.4
		C263.8,337.9,260.4,341.2,256.3,341.2z"/>
	<path fill="#FBFBFB" d="M304.6,25.9c2.4,5.2-1.1,11.8-6.9,13.3c-2.7,0.7-5.2,0.1-7.7-0.9c0.7-8.6,6.1-12.8,12.3-12.5
		C303.1,25.9,303.9,25.9,304.6,25.9z"/>
	<path fill="#FBFBFB" d="M509.7,128.3c-1.8,2.2-3.9,3.8-6.9,4.4c-5.1,1-9.8-2.5-11.2-6.4c-0.3-0.7-0.4-1.5-0.6-2.2
		c2.8-1.9,6-3,9.4-2.7C504.8,121.8,507.6,124.6,509.7,128.3z"/>
	<path fill="#FBFBFB" d="M43.6,344.6c3.7-2.3,9.5-1.8,12.7,1.6c1.8,2,2.9,4.4,2.8,7.2c0,1-0.1,1.9-0.1,2.9c-2,1.1-4.1,0.3-6.1-0.1
		c-4.6-0.9-7.6-3.7-8.7-8.3C43.9,346.8,43.8,345.7,43.6,344.6z"/>
	<path fill="#FBFBFB" d="M412,528.4c-0.5-0.8-0.9-1.6-1.4-2.3c-3.3-5.8,0.3-14.3,8.5-15c0.4,0,0.8-0.1,1.3-0.1
		c1.3,3.2,1.6,6.5,0.6,9.8C419.6,525.2,416.2,527.4,412,528.4z"/>
	<path fill="#FBFBFB" d="M557.1,351.9c-1-0.1-2.1-0.1-3.1-0.3c-6.8-1.8-10.3-9.6-6-15.9c0.2-0.3,0.4-0.7,0.6-1.1
		c6.4,1.2,10.7,7.2,9.7,13.5C558.1,349.5,557.5,350.7,557.1,351.9z"/>
	<path fill="#FBFBFB" d="M97.7,122.4c2.6,1.3,4.9,3.1,5.8,6c1.7,5.1,0,10.8-5.9,13.3c-2.2-2-3.8-4.5-4.5-7.4
		C92.1,129.3,94.1,125.5,97.7,122.4z"/>
	<path fill="#FDFDFD" d="M183.5,525c0.6-1.3,1-2.8,1.8-4c3.5-5.7,12.1-6.1,16.1-1.3c0.3,0.4,0.7,0.7,1,1.1c-1.2,2.1-2.9,3.7-4.8,5.2
		C193.6,528.9,188.1,528.8,183.5,525z"/>
	<path fill="#E87170" d="M107.8,337.4c-3.8,0.1-7.2-0.7-10.7-1.5c-2.3-0.6-3.5-1.5-3.6-4c-0.1-1.4-0.6-2.7-0.8-4.1
		c-0.2-1.2,0.2-2,1.2-2.6c3.1-2,6.7-1.7,9.3,0.9c1.8,1.9,3.3,4,3.7,6.7C107,334.3,107.4,335.7,107.8,337.4z"/>
	<path fill="#E87170" d="M321.2,422.8c-12.1,2-24.3,2.1-36.4,0.5c5.9-2.3,11.8-4.4,18.2-4.5C309.3,418.6,315.3,420.4,321.2,422.8z"
		/>
	<path fill="#E87170" d="M508.3,335.3c0.1,0.9-0.3,1.2-1.2,1.3c-1.4,0.2-2.7,0.6-4.1,0.7c-1.9,0.1-3.9,0-6,0
		c0.8-4.2,1.6-8.2,2.5-12.2c0.1-0.5,0.8-1,1.3-1.2c0.8-0.3,1.6-0.3,2.4-0.4c0.4,0.4,0.3,0.9,0.3,1.4c-0.5,3.6,0.8,6.6,3.5,9
		C507.5,334.3,508.1,334.6,508.3,335.3z"/>
	<path fill="#FBFBFB" d="M306.5,314.6c-0.2,0.2-0.4,0.4-0.7,0.4c-5.7,0.6-11.3,1.1-17,1.8c-7,0.8-13.8,2.7-19.8,6.7
		c-1,0.7-2,1.4-3.1,2.2c-0.4-0.4-0.9-0.8-1.4-1.4c2.8-2.3,5.9-3.8,9-5c6.6-2.6,13.5-4.1,20.5-4.5
		C298.2,314.5,302.4,314.6,306.5,314.6z"/>
	<path fill="#72A7B7" d="M292,353.5c2.4,0,4.7-0.1,7.1-0.1c8.2,0,16.2-1.1,24-3.6c4.5-1.4,8.7-3.4,12.5-6.2c0.6-0.4,1.1-1.1,1.6-1.6
		c0.5,0.5,1,1,1.7,1.7c-1.6,1.1-3,2.2-4.5,3c-5.9,3.3-12.3,5.2-18.9,6.3c-5.6,0.9-11.2,1.4-16.8,1.2
		C296.4,354.1,294.2,353.7,292,353.5z"/>
	<path fill="#FBFBFB" d="M508.3,335.3c-4.4-2.5-6-6.2-5-11.7c4.1,0.1,7,3.7,6.1,7.6C509.1,332.5,508.6,333.9,508.3,335.3z"/>
	<path fill="#FBFBFB" d="M394.4,479.9c-0.5-5.2,1.5-9,6.2-11.3c2.4,2.4,1.8,7.2-1.7,9.2C397.5,478.6,395.9,479.2,394.4,479.9z"/>
	<path fill="#FBFBFB" d="M210.5,481c1.3-0.9,2.5-1.9,3.9-2.6c2.9-1.4,5.9-0.9,8.8,0.4c-0.9,3.8-4.6,5.9-8.1,4.5
		C213.5,482.7,212,481.8,210.5,481z"/>
	<path fill="#FBFBFB" d="M299.7,77.5c-0.7,3.9-4.6,7.1-8.8,7.5c-0.5,0-1,0.1-1.5,0.1c-0.9-3.7,1.6-7.3,5.5-7.6
		C296.5,77.4,298.1,77.5,299.7,77.5z"/>
	<path fill="#FBFBFB" d="M134.7,158.6c2.8,4.4,2.4,8.6-0.5,12.8c-3.4-1.3-4.8-5.5-2.8-8.8C132.4,161.1,133.6,159.9,134.7,158.6z"/>
	<path fill="#FBFBFB" d="M466.2,156.4c-1.4,0.2-2.9,0.5-4.3,0.6c-3.4,0.1-6-1.5-8-4.2c2.8-3,6.7-3.1,9.4-0.1
		C464.4,153.8,465.3,155.2,466.2,156.4z"/>
	<path fill="#72A7B7" d="M402.2,439.1c2.4,3.7,1.2,8.5-1.3,11.4c-2.3,2.7-7.3,4.4-11.2,2.4c2.4-0.1,4.7-0.7,6.7-2
		c3.6-2.3,5.5-5.6,5.6-9.9C402,440.3,402.1,439.7,402.2,439.1z"/>
	<path fill="#73A9B9" d="M228.2,439.2c2.9,4.2,1,12.1-5.6,14.3c-2.2,0.7-4.5,0.9-6.7-0.3c4.3-0.5,7.9-2.2,10.3-6
		C227.8,444.7,228.3,442,228.2,439.2z"/>
	<path fill="#FBFBFB" d="M172.6,434.8c-0.9-0.8-1.8-1.6-2.7-2.3c-0.5-0.4-1.2-0.7-1.7-1c0,0,0,0,0,0c-2.7-2.3-5.1-5-7.6-7.5l0,0
		c-0.2-0.1-0.3-0.3-0.4-0.4l0,0c-0.2-0.1-0.3-0.3-0.4-0.4l0,0c-0.2-0.1-0.3-0.2-0.4-0.4l0,0c-0.2-0.1-0.3-0.2-0.4-0.4l0,0
		c-0.1-0.1-0.2-0.2-0.1-0.2c0-0.1,0.1-0.1,0.1-0.1c0.5-0.2,1.1-0.4,1.6-0.6c0.4,0.5,0.8,1.1,1.3,1.6c3.3,3.3,6.6,6.6,9.9,10
		C172,433.4,172.3,434.1,172.6,434.8z"/>
	<path fill="#FBFBFB" d="M265.2,342.9c2.5,2.5,5.4,4.4,8.6,5.8c0.4,0.2,0.7,0.6,1.1,0.9c-3.6-1.1-6.8-2.9-9.9-5
		C263.8,343.8,264.3,343.3,265.2,342.9z"/>
	<path fill="#B7DEE1" d="M338,98c-2.5-0.3-4.9-0.6-7.4-0.9c-3.2-0.4-6.5-0.8-9.7-1.2c-1.8-0.2-3.5-0.5-5.3-0.8
		c3.8,0.3,7.6,0.5,11.4,0.9c3.4,0.4,6.9,1,10.3,1.6C337.6,97.8,337.8,97.9,338,98z"/>
	<path fill="#72A7B7" d="M160.5,424c0.5,0.3,1,0.5,1.3,0.9c1.8,1.7,3.6,3.5,5.4,5.3c0.4,0.4,0.6,0.9,0.9,1.3c-0.3-0.1-0.7,0-0.9-0.2
		c-2.2-2.1-4.3-4.3-6.5-6.5C160.5,424.6,160.5,424.3,160.5,424z"/>
	<path fill="#B7DEE1" d="M313.2,95.1c-4.7,0-9.5,0-14.2,0c-2.5,0-5,0-7.5-0.1c1.8-0.1,3.6-0.4,5.4-0.4c5.1,0,10.2,0.1,15.3,0.1
		C312.6,94.8,312.9,95,313.2,95.1z"/>
	<path fill="#72A7B7" d="M462,177.6c-1.1-0.1-1.3-0.8-1.2-1.7C461.2,176.5,461.6,177,462,177.6z"/>
	<path fill="#72A7B7" d="M457.4,171.3c-0.3-0.4-0.6-0.8-0.9-1.2C456.8,170.5,457.1,170.9,457.4,171.3z"/>
	<path fill="#72A7B7" d="M458.6,173c-0.9,0-0.9-0.6-0.9-1.2C458,172.2,458.3,172.6,458.6,173z"/>
	<path fill="#72A7B7" d="M459.9,174.7c-0.9,0-0.9-0.6-0.9-1.2C459.3,173.9,459.6,174.3,459.9,174.7z"/>
	<path fill="#72A7B7" d="M463.7,180.1c-0.9,0-0.9-0.6-0.8-1.3C463.1,179.3,463.4,179.7,463.7,180.1z"/>
	<path fill="#72A7B7" d="M462.8,178.9c-0.9,0-0.9-0.6-0.9-1.2C462.3,178,462.5,178.4,462.8,178.9z"/>
	<path fill="#72A7B7" d="M460.8,175.9c-0.9,0-0.9-0.6-0.9-1.2C460.2,175.1,460.5,175.5,460.8,175.9z"/>
	<path fill="#72A7B7" d="M454.4,167.5c-0.3-0.3-0.5-0.6-0.8-0.9C453.9,166.9,454.2,167.2,454.4,167.5z"/>
	<path fill="#B7DEE1" d="M314.8,95.2c-0.3,0-0.6,0-0.9,0C314.2,95.1,314.5,95.1,314.8,95.2z"/>
	<path fill="#72A7B7" d="M451.9,164.5c-0.2-0.2-0.4-0.5-0.5-0.7C451.6,164.1,451.8,164.3,451.9,164.5z"/>
	<path fill="#FBFBFB" d="M274.8,349.6c0.3,0.1,0.6,0.2,0.8,0.3C275.4,349.8,275.1,349.7,274.8,349.6z"/>
	<path fill="#72A7B7" d="M453.6,166.6c-0.2-0.2-0.4-0.5-0.5-0.7C453.3,166.1,453.5,166.4,453.6,166.6z"/>
	<path fill="#72A7B7" d="M160.1,423.6c0.1,0.1,0.3,0.3,0.4,0.4C160.3,423.9,160.2,423.7,160.1,423.6z"/>
	<path fill="#72A7B7" d="M159.6,423.2c0.1,0.1,0.3,0.3,0.4,0.4C159.9,423.5,159.8,423.3,159.6,423.2z"/>
	<path fill="#72A7B7" d="M159.2,422.7c0.1,0.1,0.3,0.3,0.4,0.4C159.5,423,159.4,422.9,159.2,422.7z"/>
	<path fill="#72A7B7" d="M158.8,422.3c0.1,0.1,0.3,0.3,0.4,0.4C159.1,422.6,159,422.5,158.8,422.3z"/>
	<path fill="#72A7B7" d="M158.8,421.9c0.1,0.1,0.1,0.2,0,0.4c-0.1-0.1-0.2-0.1-0.3-0.2C158.6,422,158.7,422,158.8,421.9z"/>
	<path fill="#72A7B7" d="M450.2,162.5c-0.1-0.2-0.3-0.3-0.4-0.5C450,162.2,450.1,162.3,450.2,162.5z"/>
	<path fill="#72A7B7" d="M450.6,162.9c-0.1-0.1-0.3-0.3-0.4-0.4C450.3,162.6,450.5,162.8,450.6,162.9z"/>
	<path fill="#72A7B7" d="M452.7,165.4c-0.1-0.2-0.3-0.3-0.4-0.5C452.5,165.1,452.6,165.3,452.7,165.4z"/>
	<path fill="#72A7B7" d="M452.3,165c-0.1-0.1-0.3-0.3-0.4-0.4C452.1,164.7,452.2,164.8,452.3,165z"/>
	<path fill="#FEFDFD" d="M213.9,266c0-10,0-20,0-30c0-0.6,0-1.1,0-1.7c0.2-1.9,0.8-2.6,2.7-3c2.7-0.5,5.4-0.9,8.1-1.1
		c4.4-0.3,8.8-0.5,13.2-0.5c5,0,9.9,0.8,14.5,2.7c8.4,3.5,12.8,10.1,14.3,18.8c1.2,6.6,1.7,13.3,1.2,20c-0.3,5.6-0.9,11.2-3.3,16.3
		c-4,8.7-11,13.3-20.4,14.4c-7.7,0.9-15.5,0.5-23.2-0.4c-1.4-0.2-2.8-0.3-4.2-0.5c-2.1-0.3-2.8-1-3.1-3.1c-0.1-0.7-0.1-1.4-0.1-2.1
		C213.9,286,213.9,276,213.9,266z"/>
	<path fill="#FEFDFD" d="M279.2,268.1c0-8.8,0-17.5,0-26.3c0-2,0.1-4,0.3-6.1c0.2-2.7,1.3-4,4-4.2c4-0.3,8.1-0.7,12.1-0.9
		c5.2-0.2,10.3-0.5,15.5-0.5c4.4,0,8.6,0.9,12.6,2.9c5.8,2.9,8.8,7.9,10,14c0.6,3.3,0.9,6.7,0.9,10c0.1,13.6,0,27.2,0,40.8
		c0,0.6,0,1.1,0,1.7c-0.1,1.6-0.5,2.2-2.1,2.2c-4,0-8,0-12,0c-1.6,0-2.1-0.6-2.3-2.1c-0.1-0.6,0-1.1,0-1.7c0-14.1,0-28.2-0.1-42.2
		c0-1.8-0.3-3.6-0.8-5.4c-0.9-3.9-3.3-6-7.2-6.1c-4.4-0.1-8.8,0.1-13.2,0.2c-0.8,0-1.2,0.4-1.2,1.2c0,0.6,0,1.3,0,1.9
		c0,16.7,0,33.4,0,50c0,0.5,0,1,0,1.5c-0.1,2.4-0.5,2.8-2.9,2.8c-3.6,0-7.3,0-10.9,0c-2.1,0-2.2-0.1-2.5-2.1
		c-0.1-0.9-0.2-1.8-0.2-2.7C279.2,287.3,279.2,277.7,279.2,268.1z"/>
	<path fill="#FEFDFD" d="M347.6,293.9c0-1.4,0-2.8,0-4.2c0-1.8,0.5-2.3,2.2-2.2c3,0.1,6,0.4,9,0.6c4.1,0.3,8.2,0.6,12.3,0.2
		c2.5-0.3,4-1.5,4.7-3.6c0.8-2.7,0.7-5.2-1.7-7c-2.6-1.9-5.4-3.6-8.1-5.3c-4.1-2.6-8.3-4.9-12.3-7.6c-5.5-3.8-8.4-9.1-8.2-15.9
		c0-1.7-0.1-3.4,0.3-5c1.5-7,6.1-10.9,12.8-12.8c2.5-0.7,5.1-0.9,7.6-1.2c4.2-0.5,8.5-0.2,12.7,0.4c3.1,0.5,6.2,0.8,9.4,1.2
		c2.7,0.3,3.5,1.1,3.5,3.9c0,2.4,0.1,4.8,0,7.1c-0.1,2-0.5,2.5-2.6,2.4c-5.6-0.2-11.2-0.6-16.8-0.8c-2.2-0.1-4.5,0.1-6.7,0.3
		c-2,0.2-3,1.5-3.5,3.4c-0.5,2,0,3.6,1.5,4.6c2.7,1.8,5.4,3.5,8.2,5.1c3.4,1.9,6.9,3.7,10.3,5.6c5.5,3.1,9.6,7.4,11,13.9
		c2.3,10.2-2.8,20-12.7,23.6c-3.2,1.2-6.6,1.7-10,2c-6.8,0.6-13.4-0.2-19.9-1.7c-2.8-0.6-3-1-3.1-3.8
		C347.6,296,347.6,294.9,347.6,293.9z"/>
	<path fill="#FBFBFB" d="M351.4,213.3c0-2.9,0-5.7,0-8.6c0-4.2,2.4-6.9,6.6-7.2c2.4-0.1,4.9,0,7.3,0.2c4.2,0.4,6.1,2.7,6.2,7
		c0,5,0,10.1,0,15.1c0,1,0,2,0,2.9c0,1.1-0.5,1.5-1.5,1.5c-5.8-0.1-4.5,0.8-4.7-4.3c0-1.2,0-2.4,0-3.6c0.1-1-0.2-1.5-1.4-1.5
		c-1.6,0.1-3.2,0.1-4.8,0c-1.1,0-1.5,0.3-1.5,1.4c0.1,2,0,4.1,0,6.1c0,1.8,0,1.8-1.7,1.8c-5.6-0.1-4.4,0.7-4.5-4.3
		C351.4,217.8,351.4,215.5,351.4,213.3z"/>
	<path fill="#FEFDFD" d="M301.4,211.2c0-3.6,0-7.3,0-10.9c0-2.1,0.4-2.4,2.4-2.5c2.6-0.1,5.2-0.4,7.7-0.3c1.6,0,3.2,0.3,4.7,0.8
		c3,0.9,4.7,3.4,4.9,6.6c0.2,3.3-0.4,6.3-3.6,8.1c-0.9,0.5-0.5,1.1-0.2,1.7c1.4,2.6,2.8,5.2,4.1,7.8c0.8,1.6,0.7,1.8-1.2,1.9
		c-0.5,0-1-0.1-1.5,0c-2.6,0.6-3.8-0.8-4.8-2.9c-0.8-1.7-1.7-3.4-2.6-5c-0.3-0.6-0.7-1.3-1.3-1.6c-1.3-0.8-2.5-0.1-2.5,1.5
		c0,2.2,0,4.3,0,6.5c0,1.1-0.4,1.5-1.5,1.5c-1,0-2.1,0-3.1,0c-1.3,0.1-1.7-0.6-1.7-1.8C301.4,218.8,301.4,215,301.4,211.2z"/>
	<path fill="#FEFDFD" d="M325.8,211.3c0-3.6,0-7.3,0-10.9c0-1.8,0.2-2.1,1.9-2.4c4.1-0.6,8.2-1,12.3-0.2c3.7,0.7,6.1,3,6.3,6.8
		c0.3,6.1,0.2,12.2,0.4,18.2c0,1-0.3,1.6-1.5,1.6c-1.2,0-2.4,0-3.6,0c-0.9,0-1.3-0.4-1.2-1.3c0-2.3,0-4.6,0-6.9
		c-0.1-3.5-0.1-7-0.3-10.5c-0.2-2.2-1.1-2.9-3.3-2.9c-1.5,0-3,0.2-4.5,0.3c-0.1,1.4-0.1,2.8-0.1,4.2c0,5,0,10.1,0,15.1c0,2,0,2-2,2
		c-5,0-4.2,0.6-4.3-4.2C325.8,217.2,325.8,214.2,325.8,211.3z"/>
	<path fill="#FEFDFD" d="M233.5,197.8c2.3,0,4.3-0.1,6.2,0.1c0.7,0.1,1.4,0.9,1.8,1.5c1.3,1.9,2.4,3.9,3.8,6.1
		c0.9-1.6,1.7-2.9,2.4-4.3c2.3-4.1,1.2-3.3,5.7-3.4c0.4,0,0.7,0,1.1,0c1.6,0.1,1.7,0.3,0.9,1.7c-1.8,3.2-3.7,6.4-5.7,9.6
		c-0.9,1.4-1,2.5,0,3.9c2.1,3.1,4,6.4,5.9,9.6c0.9,1.4,0.8,1.6-0.9,1.7c-5,0.3-5,0.3-7.7-3.9c-0.8-1.2-1.6-2.5-2.5-4
		c-1.1,1.8-2.2,3.3-2.9,5c-1,2.2-2.4,3.3-4.9,2.9c-1-0.2-2,0-3.5,0c1.6-2.8,3-5.2,4.4-7.7c0.9-1.6,1.8-3.3,2.9-4.9
		c0.6-0.9,0.4-1.5-0.1-2.3c-2-3.2-4-6.4-5.9-9.7C234.3,199.3,234,198.7,233.5,197.8z"/>
	<path fill="#FBFBFB" d="M214,210.9c0-2.2-0.1-4.5,0-6.7c0.1-4,2.4-6.5,6.3-6.7c2.9-0.2,5.9,0.2,8.8,0.3c1,0,1.2,0.5,1.3,1.5
		c0.2,3.5,0.2,3.5-3.3,3.5c-1.7,0-3.4,0-5,0c-1.2,0-1.7,0.7-1.8,1.8c-0.4,3.6-0.3,3.7,3.3,3.7c1.7,0,3.5,0,5.2,0
		c1,0,1.4,0.4,1.4,1.4c0,0.2,0,0.4,0,0.6c0.1,3,0.1,3-2.8,3c-2,0-4.1,0-6.1,0c-0.9,0-1.2,0.3-1.2,1.2c-0.2,4.6,0,4.8,4.7,4.8
		c1.4,0,2.8,0,4.2,0c1,0,1.3,0.4,1.3,1.4c0.2,3.4,0.2,3.6-3.1,3.9c-2.6,0.2-5.3,0.1-7.9-0.2c-3.5-0.5-5.2-2.7-5.4-6.2
		C213.9,215.7,214,213.3,214,210.9z"/>
	<path fill="#FBFBFB" d="M280.7,211c0-2.1,0-4.2,0-6.3c0-4.5,2-6.9,6.4-7.2c2.9-0.2,5.9,0.2,8.8,0.3c0.9,0,1.2,0.5,1.2,1.4
		c0,0.1,0,0.3,0,0.4c0.1,3.2,0.1,3.2-3,3.2c-1.7,0-3.4,0-5,0c-1.7,0.1-2,0.4-2.3,2.1c-0.6,3.1-0.2,3.5,2.9,3.5c2,0,3.9,0,5.9,0
		c0.9,0,1.2,0.4,1.2,1.2c0,4.3,0.3,3.7-3.5,3.7c-1.6,0-3.2,0.1-4.8,0c-1.1,0-1.6,0.3-1.5,1.4c0,0.3-0.2,0.6-0.2,0.8
		c0.4,3.4-0.2,3.9,3.6,3.8c1.8,0,3.5,0,5.3,0c1,0,1.5,0.4,1.6,1.5c0.2,3.1,0.2,3.4-2.9,3.6c-2.8,0.2-5.7,0.2-8.5-0.2
		c-3-0.3-4.8-2.6-4.9-5.6C280.6,216.1,280.7,213.5,280.7,211C280.7,211,280.7,211,280.7,211z"/>
	<path fill="#FEFDFD" d="M264.9,213.4c0-3.1,0-6.2,0-9.2c0-1-0.3-1.4-1.3-1.3c-1.3,0.1-2.5,0-3.8,0c-1,0-1.4-0.4-1.3-1.4
		c0.1-4.6-0.4-3.7,3.4-3.7c4.7-0.1,9.4,0,14.1,0c1.8,0,1.8,0,1.9,1.9c0.1,3.2,0.1,3.2-3.1,3.2c-3.5,0-3.5,0-3.5,3.5
		c0,5.3,0,10.6,0,16c0,2,0,2-2,2c-4.9,0-4.2,0.6-4.3-4.2C264.8,217.9,264.9,215.6,264.9,213.4z"/>
	<path fill="#FEFDFD" d="M376.2,208.5c0-2.9,0-5.9,0-8.8c0-1.8,0.1-1.9,1.9-1.9c1.1,0,2.1,0,3.2,0c0.9,0,1.2,0.4,1.2,1.3
		c0,1.6,0,3.2,0,4.8c0,4.2,0,8.4,0,12.6c0,2.4,0.5,2.8,2.8,2.9c1.5,0,2.9,0,4.4,0c1.8,0,2,0.2,2,2.1c0,0.5,0,1,0,1.5
		c0,0.8-0.3,1.4-1.2,1.4c-2.6,0.1-5.2,0.5-7.7,0.3c-4.4-0.4-6.4-2.7-6.6-7.2C376.2,214.4,376.3,211.4,376.2,208.5
		C376.3,208.5,376.3,208.5,376.2,208.5z"/>
	<path fill="#2C4451" d="M216.7,367.3c1.8-0.4,3.4-1,5.1-1c2.3,0,4.8,0.1,7,0.8c3.8,1.1,6.3,3.8,7.7,7.4c1.8,4.7,2.2,9.5,0.9,14.4
		c-2,7.4-7,11.4-14.6,12c-4.8,0.3-9.5-0.4-14.2-1.3c-1.3-0.3-1.7-0.9-1.6-2.2c0-14.4,0-28.7,0-43.1c0-1.2,0.3-1.8,1.6-1.9
		c2.2-0.3,4.4-0.7,6.6-1.1c1.2-0.2,1.5,0.1,1.5,1.3c0,4.2,0,8.4,0,12.6C216.7,365.8,216.7,366.5,216.7,367.3z"/>
	<path fill="#2C4451" d="M143.6,386.3c0,3.5,0,7,0,10.4c0,3.9,0.6,3.4-3.5,3.4c-1.3,0-2.5,0-3.8,0c-2.3,0-2.3,0-2.3-2.2c0-3,0-6,0-9
		c0-11.3,0-22.6,0-33.8c0-2.9-0.1-2.3,2.3-2.8c2.1-0.4,4.1-0.6,6.2-1c0.9-0.2,1.2,0.1,1.1,0.9c0,0.5,0,1,0,1.5c0,8.1,0,16.3,0,24.8
		c0.6-0.6,1-0.9,1.4-1.2c2.7-3,5.4-6.1,8-9.2c0.7-0.8,1.4-1.2,2.5-1.2c3.1,0.1,6.3,0,9.8,0c-0.8,0.9-1.4,1.7-2,2.4
		c-3.4,3.7-6.7,7.3-10.1,10.9c-1.3,1.4-1.3,1.3,0.1,2.8c4.5,4.6,8.4,9.8,11.5,15.4c0.2,0.4,0.4,0.7,0.6,1.1c0.1,0.1,0,0.3,0.1,0.7
		c-3.4,0-6.7,0.1-10-0.1c-0.5,0-1.1-0.7-1.5-1.2c-2.5-3.4-5-6.9-7.6-10.3c-0.7-0.9-1.5-1.6-2.3-2.4
		C143.9,386.2,143.7,386.3,143.6,386.3z"/>
	<path fill="#2C4451" d="M428.7,386.7c-3,0-6,0-9,0c-1.5,0-1.7,0.4-1.2,1.7c1,2.4,3,3.6,5.4,4.1c3.6,0.8,7.1,0.3,10.5-0.7
		c1.8-0.6,1.8-0.5,2.2,1.3c0.3,1.5,0.4,3,0.8,4.5c0.3,1.1-0.2,1.6-1.1,1.9c-5.7,1.6-11.4,2.3-17.2,0.6c-5.5-1.7-9-5.3-10.3-11.1
		c-1.3-6-0.8-11.6,2.9-16.8c5.8-8.2,17.1-7.2,22.1-3.3c3.2,2.5,4.8,5.8,5.3,9.7c0.3,2.1,0.3,4.2,0.3,6.3c0,1.7-0.2,1.8-2,1.8
		C434.6,386.7,431.6,386.7,428.7,386.7C428.7,386.7,428.7,386.7,428.7,386.7z"/>
	<path fill="#2C4451" d="M264.1,386.7c-3,0-6,0-9,0c-1.4,0-1.6,0.3-1.1,1.6c1,2.4,3,3.7,5.4,4.2c3.6,0.7,7.1,0.3,10.6-0.7
		c1.9-0.6,1.9-0.5,2.2,1.4c0.3,1.5,0.5,3,0.8,4.5c0.2,1-0.2,1.4-1.1,1.7c-5.5,1.6-11.1,2.3-16.8,0.8c-7-1.9-10.5-6.8-11.3-13.8
		c-0.7-6.2,0.6-11.9,5.2-16.4c5.1-4.9,14.2-5.5,20-1.3c3.6,2.6,5.2,6.3,5.7,10.6c0.2,2,0.1,4,0.1,6.1c0,1-0.5,1.3-1.4,1.3
		C270.4,386.7,267.2,386.7,264.1,386.7z"/>
	<path fill="#2C4451" d="M364.9,386.7c-3,0-6,0-9,0c-1.5,0-1.7,0.2-1.1,1.6c1,2.5,3,3.8,5.6,4.3c3.4,0.7,6.7,0.3,10-0.5
		c2.3-0.6,2.3-0.6,2.8,1.8c0.2,1.3,0.4,2.6,0.7,3.9c0.2,0.9-0.1,1.4-1,1.7c-5.4,1.6-10.9,2.3-16.4,0.9c-6.3-1.6-10.2-5.7-11.3-12.3
		c-1.1-6.8-0.2-13,5-18c6.4-6.2,18.2-5.3,23,1.8c1.8,2.7,2.6,5.7,2.8,8.9c0.1,1.3,0,2.5,0,3.8c0,2.1,0,2.1-2.1,2.2
		C370.8,386.7,367.8,386.7,364.9,386.7C364.9,386.7,364.9,386.7,364.9,386.7z"/>
	<path fill="#2C4451" d="M198.4,383.1c0,4.8,0,9.5,0,14.3c0,1-0.1,1.7-1.3,2c-5.7,1.2-11.4,2.1-17.3,1.2c-5.1-0.8-8.8-4.4-9.6-9.5
		c-0.3-1.7-0.5-3.5-0.5-5.2c-0.1-5.7,0-11.5,0-17.2c0-1.7,0-1.7,1.7-1.8c2,0,4.1,0,6.1,0c1.6,0,1.7,0.2,1.6,1.7c0,5-0.1,10.1,0,15.1
		c0,1.9,0.3,3.9,0.7,5.8c0.4,2,1.9,3.1,3.9,3.2c1.4,0.1,2.8-0.1,4.2-0.1c0.7,0,1-0.4,1-1.1c0-0.5,0-1,0-1.5c0-6.9,0-13.9,0-20.8
		c0-2.4,0-2.4,2.3-2.4c1.8,0,3.6,0,5.5,0c1.7,0,1.8,0,1.8,1.7C198.4,373.4,198.4,378.2,198.4,383.1z"/>
	<path fill="#2C4451" d="M308.9,383.9c0-4.8,0-9.5,0-14.3c0-1.2,0.2-1.7,1.5-2c5.2-1,10.3-1.9,15.6-1.3c6.8,0.7,11,4.5,11.4,11.4
		c0.4,7.1,0.1,14.1,0.2,21.2c0,0.8-0.3,1.2-1.1,1.2c-2.4,0-4.8,0-7.1,0c-1.4,0-1.2-0.9-1.2-1.7c0-5.3,0.1-10.5,0-15.8
		c0-1.8-0.3-3.6-0.8-5.4c-0.6-2.1-1.9-3-4.1-2.9c-6.1,0-4.9-0.5-5,4.8c-0.1,6.4,0,12.7,0,19.1c0,1.8,0,1.8-1.8,1.8
		c-2,0-4.1-0.1-6.1,0c-1.2,0-1.5-0.4-1.5-1.6C308.9,393.7,308.9,388.8,308.9,383.9z"/>
	<path fill="#2C4451" d="M455.5,401.4c-2.8-0.5-6-1.1-9.2-1.8c-1.3-0.3-1.7-1-1.2-2.3c0.4-1.2,0.6-2.6,0.9-3.9
		c0.4-2.1,0.4-1.9,2.5-1.4c2.6,0.6,5.2,1,7.8,1.3c1,0.1,2.1-0.1,3.1-0.4c1.7-0.5,2.1-2.2,0.8-3.4c-0.8-0.7-1.7-1.2-2.7-1.6
		c-2-0.9-4-1.6-6-2.5c-5.4-2.5-7.4-8.4-4.8-13.7c1.1-2.2,2.8-3.6,5.1-4.4c5.4-2,10.9-1.3,16.3,0.2c0.3,0.1,0.8,0.9,0.7,1.2
		c-0.3,1.9-0.8,3.7-1.2,5.5c-0.2,1-0.8,0.7-1.5,0.6c-1.6-0.3-3.3-0.9-4.9-1c-1.5-0.1-3.1,0-4.5,0.4c-1.8,0.5-2.1,2.6-0.6,3.7
		c0.9,0.7,2.1,1.1,3.2,1.6c2.1,1,4.2,1.8,6.3,2.8c4.2,2.1,5.3,5.9,4.9,10.2c-0.3,3.5-3,6.5-7,7.5C461,400.7,458.5,400.9,455.5,401.4
		z"/>
	<path fill="#2C4451" d="M382.7,374c0-4.3,0-8.7,0-13c0-2.3,0-2.3,2.2-2.7c2-0.4,4-0.7,6-1c1-0.2,1.4,0.1,1.4,1.2
		c-0.1,2.2-0.1,4.3-0.1,6.5c0,1.8,0,1.9,1.8,1.9c2.7,0,5.3,0.1,8,0c1.2,0,1.6,0.4,1.6,1.6c-0.1,1.6-0.1,3.2,0,4.8
		c0.1,1.4-0.5,1.7-1.7,1.6c-2.6-0.1-5.2-0.1-7.8-0.1c-1.9,0-1.8,0-1.8,1.9c0,2.9-0.1,5.7,0,8.6c0,1.3,0.1,2.7,0.4,4
		c0.5,2.4,1.7,3.6,4.2,3.6c1.7,0,3.5-0.2,5.2-0.6c1.2-0.3,1.7-0.1,1.9,1.1c0.2,1.6,0.6,3.2,0.9,4.7c0.2,0.8-0.1,1.3-0.9,1.6
		c-4.8,1.6-9.6,2-14.4,0.2c-4.4-1.6-6.3-5.3-6.5-9.7c-0.2-5.4-0.1-10.8-0.1-16.2C382.9,374,382.8,374,382.7,374z"/>
	<path fill="#2C4451" d="M282.2,384.5c0-4.6,0-9.1,0-13.7c0-2.3,0-2.3,2.3-3c5.7-1.7,11.4-2.2,17.2-1.1c2.2,0.5,2.2,0.4,1.8,2.7
		c-0.3,1.3-0.6,2.6-0.8,3.9c-0.4,1.8-0.4,1.7-2.1,1.5c-2.3-0.3-4.6-0.5-6.9-0.5c-1.8,0-2,0.3-2,2.1c0,7.1,0,14.1,0,21.2
		c0,2.3,0,2.3-2.3,2.3c-1.9,0-3.8-0.1-5.7,0c-1.2,0-1.6-0.4-1.6-1.6C282.3,393.9,282.2,389.2,282.2,384.5z"/>
	<path fill="#2D4451" d="M476.7,302.1c-4.5-0.2-8.4-1.8-10.8-5.8c-2.8-4.5-2.8-9.1,0-13.7c2.7-4.4,7.7-6.5,12.9-5.4
		c5.2,1,8.4,4.2,9.8,9.3c0.2,0.7,0.3,1.4,0.5,2C491,294,484.2,303.5,476.7,302.1z"/>
	<path fill="#2D4451" d="M302.6,128.4c-4.4-0.2-8.2-1.8-10.7-5.5c-2.9-4.2-3-9.7-0.3-13.8c2.9-4.5,7.9-6.5,13.3-5.5
		c4.7,0.9,8.5,4.8,9.6,9.7c0.1,0.5,0.3,1.1,0.4,1.6c0.8,4.3-0.9,7.7-3.9,10.5C308.7,127.6,306,129.1,302.6,128.4z"/>
	<path fill="#2D4451" d="M453.1,215.2c-1.2-0.2-2.5-0.3-3.7-0.6c-6.1-1.7-9.8-7.5-8.8-14.1c1.1-7.1,7.4-10.5,12.1-10.4
		c6.7,0.1,11.1,3.8,12.7,11C468,207.9,459.4,216.8,453.1,215.2z"/>
	<path fill="#2D4451" d="M215.5,151.9c-3.5-0.3-6.7-1.2-9.2-3.9c-3.6-3.8-4.7-9.2-2.5-13.9c2.2-4.9,7.1-7.8,12.5-7.3
		c5.1,0.4,9.6,4.1,10.9,9c0.2,0.7,0.3,1.5,0.5,2.2C229.5,145.2,223.3,152.2,215.5,151.9z"/>
	<path fill="#2D4451" d="M128.5,302.6c-7.6-0.2-12.5-6.1-12.6-12.6c0-5.7,4.4-12,11.8-12.5c6-0.4,11.4,3.5,12.9,9.5
		c0.2,0.7,0.3,1.4,0.5,2c1,4.7-1.1,8.3-4.5,11.2C134.3,302.1,131.6,303.3,128.5,302.6z"/>
	<path fill="#2D4451" d="M151.6,215.6c-4.6-0.3-8.4-2.2-10.7-6.2c-2.4-4.1-2.4-8.4-0.1-12.6c2.3-4,5.8-6,10.5-6.3
		c6.6-0.3,12,4.9,12.7,10.2c0.1,0.4,0.2,0.8,0.3,1.2c1,4.1-1.4,9.5-5.3,11.9C156.7,215.2,154.3,216.3,151.6,215.6z"/>
	<path fill="#73A9B9" d="M215.5,151.9c1-0.2,2-0.3,3-0.6c5.5-1.6,9.1-6.3,9.2-12c0-0.4,0-0.8,0-1.3c2,2.5,1.5,8.2-0.8,10.7
		C223.5,152.5,219.4,153.7,215.5,151.9z"/>
	<path fill="#73A9B9" d="M128.5,302.6c5.8-0.4,9.9-3.1,11.8-8.6c0.5-1.5,0.6-3.3,0.8-4.9c2,3,1.5,6.1,0,9.1
		C139,302.3,133.5,304.9,128.5,302.6z"/>
	<path fill="#73A9B9" d="M302.6,128.4c1.9-0.6,4-0.9,5.7-1.8c4.7-2.4,6.2-6.8,6.5-11.7c2,3.3,1.5,6.4-0.4,9.6
		C311.6,129.1,305.8,130.3,302.6,128.4z"/>
	<path fill="#73A9B9" d="M151.6,215.6c4.5-0.3,8.2-2.1,10.7-6c1.5-2.3,1.9-4.9,2-7.6c2.7,3.6,0.8,10.1-2.9,12.6
		C158.3,216.6,155,217,151.6,215.6z"/>
	<path fill="#73A9B9" d="M453.1,215.2c3.2-0.3,6.1-1.3,8.5-3.6c2.6-2.6,3.9-5.6,3.8-9.2c0-0.4,0-0.8,0-1.3c2,3.4,1.6,8.3-0.8,11.1
		C461.8,215.6,457.4,216.9,453.1,215.2z"/>
	<path fill="#73A9B9" d="M476.7,302.1c6.7-0.8,10.7-4.3,12-10.6c0.2-0.9,0.2-1.9,0.3-2.9c2.3,3.2,1.3,8.8-2.1,11.7
		C483.9,302.9,480.5,303.9,476.7,302.1z"/>
	<path fill="#73A9B9" d="M389.2,151.6c6.8,0.1,12.7-5.4,12.8-13.2c2,3.4,1.3,6.7-0.8,9.8C398.4,152.2,393.4,153.4,389.2,151.6z"/>
	<path fill="#2D4451" d="M302.6,476.3c-6.9-0.5-11.4-4.5-12.4-11.2c-0.9-6.2,4-12.8,10.2-13.7c7.1-1,12.8,2.9,14.5,9.9
		c0.1,0.5,0.2,0.9,0.4,1.4C316.9,469.8,309.7,477.5,302.6,476.3z"/>
	<path fill="#73A9B9" d="M302.6,476.3c6.7,0,12.6-5.3,12.6-12.9c0-0.2,0-0.4,0.1-0.6c2.8,4,0.9,11.5-5.4,13.8
		C307.5,477.4,305,477.5,302.6,476.3z"/>
	<path fill="#FBFBFB" d="M175.2,436.7c-0.4-0.4-0.8-0.9-1.3-1.3C174.7,435.4,175.2,435.8,175.2,436.7z"/>
	<path fill="#FBFBFB" d="M173.9,435.4c-0.3-0.1-0.7-0.3-1-0.4C173.2,435.1,173.6,435.3,173.9,435.4z"/>
	<path fill="#FBFBFB" d="M176.4,437.5c-0.3-0.1-0.6-0.3-0.9-0.4C175.9,437.2,176.1,437.4,176.4,437.5z"/>
	<path fill="#FBFBFB" d="M176.8,438.2c-0.1-0.2-0.3-0.4-0.4-0.6C176.6,437.7,176.7,437.9,176.8,438.2z"/>
	<path fill="#FBFBFB" d="M175.6,437.1c-0.1-0.1-0.3-0.3-0.4-0.4C175.3,436.8,175.4,437,175.6,437.1z"/>
	<path fill="#2C4451" d="M322.1,342.3c-4.2,0.3-4.2,0.3-6-3c-0.4-0.8-0.7-1.7-1.3-2.4c-0.3-0.4-1-0.5-1.6-0.6
		c-0.1,0-0.5,0.7-0.5,1.2c-0.1,1.3-0.1,2.5,0,3.8c0,0.9-0.3,1.3-1.2,1.2c-0.4,0-0.8,0-1.3,0c-1.1,0.1-1.5-0.4-1.4-1.4
		c0-3.5,0-7,0-10.5c0-1.2-0.1-2.4,0-3.6c0-0.5,0.5-1.2,0.7-1.2c2.6-0.1,5.2-0.3,7.7-0.1c2,0.2,3.4,1.4,3.9,3.5
		c0.5,2.3,0.3,4.4-1.8,5.8c-0.8,0.5-0.7,1-0.3,1.7C320.1,338.4,321,340.3,322.1,342.3z"/>
	<path fill="#2D4451" d="M306.3,334.5c-0.1,1-0.2,2.3-0.5,3.5c-0.7,3.1-3.3,4.9-6.7,4.8c-3.6-0.1-6-2.2-6.4-5.9
		c-0.2-1.9-0.2-3.8,0-5.6c0.5-4.4,3.9-6.7,8.2-5.9c3,0.6,4.8,2.5,5.1,5.6C306.1,332,306.2,333.1,306.3,334.5z"/>
	<path fill="#2C4451" d="M279.9,335.2c0-1.5,0-2.9,0-4.4c-0.1-4.2,1.6-5.4,5.4-5.5c1.3,0,2.6,0.2,4,0.2c1.3,0,1.1,0.9,1.2,1.7
		c0.1,1-0.3,1.4-1.3,1.4c-1.2-0.1-2.4-0.1-3.6,0c-0.5,0.1-1.3,0.4-1.5,0.8c-0.2,0.7-0.1,1.6,0,2.4c0,0.2,0.7,0.3,1.1,0.3
		c1.3,0,2.5,0.1,3.8,0c1.1-0.1,1.2,0.6,1.2,1.4c0,0.9,0,1.7-1.3,1.6c-0.9-0.1-1.8,0-2.7,0c-2.3,0-2.3,0-2.3,2.4c0,1-0.1,2.1,0,3.1
		c0.1,1.2-0.5,1.6-1.6,1.5c-0.3,0-0.7,0-1,0c-1,0.1-1.3-0.4-1.3-1.4C279.9,339.2,279.9,337.2,279.9,335.2z"/>
	<path fill="#E87170" d="M230.6,266.1c0-6.9,0-13.7,0-20.6c0-1.9,0-1.9,1.8-1.8c3.3,0.2,6.7,0.4,10,0.8c3.1,0.3,5.2,2.2,6.7,4.8
		c1.6,2.8,2,6,2.1,9.1c0.1,4.6,0.2,9.2,0.1,13.9c-0.1,2.6-0.4,5.3-0.9,7.9c-1,5.1-5,8.2-10.8,8.5c-2.2,0.1-4.3,0.1-6.5,0
		c-2.4,0-2.4-0.1-2.4-2.4C230.6,279.5,230.6,272.8,230.6,266.1z"/>
	<path fill="#E87170" d="M361.5,209.7c-3.8,0-3.8,0-3.8-3.9c0-2.7,0.2-2.9,3.1-2.9c4.7-0.1,4.6,0,4.5,4.4c0,2.6,0.2,2.4-2.3,2.4
		C362.4,209.7,362,209.7,361.5,209.7z"/>
	<path fill="#E87170" d="M307.7,206.1c0-0.7,0-1.4,0-2.1c0-1.5,0.1-1.6,1.7-1.5c1,0.1,1.9,0.2,2.9,0.3c1.7,0.3,2.9,1.7,2.9,3.3
		c0,1.7-1,2.8-2.7,3.2c-0.4,0.1-0.8,0.1-1.2,0.1C307.7,209.7,307.7,209.7,307.7,206.1z"/>
	<path fill="#FBFBFB" d="M216.7,384.1c0-2.3,0.1-4.6,0-6.9c-0.1-1.4,0.4-2.2,1.8-2.3c1.7-0.2,3.5-0.5,5.2-0.3
		c1.9,0.2,3.2,1.5,3.9,3.4c1.2,3.4,1.4,6.8,0.1,10.3c-1.1,3-3.3,4.6-6.5,4.7c-4.3,0.2-4.4,0.2-4.4-4
		C216.7,387.3,216.7,385.7,216.7,384.1z"/>
	<path fill="#FBFBFB" d="M424.2,380.1c-1.5,0-3.1,0-4.6,0c-1.4,0-1.6-0.3-1.2-1.6c0.6-2.6,3.3-4.7,6-4.7c2.9,0,5.1,1.9,5.8,4.8
		c0.3,1.1,0.1,1.6-1.1,1.5C427.4,380.1,425.8,380.1,424.2,380.1z"/>
	<path fill="#FBFBFB" d="M259.8,380.1c-1.7,0-3.3,0-5,0c-0.8,0-1.1-0.2-1-1.1c0.4-2.9,2.8-5.1,5.9-5.1c3-0.1,5.4,1.9,6,4.8
		c0.2,1.2-0.2,1.5-1.3,1.5C262.9,380.1,261.3,380.1,259.8,380.1z"/>
	<path fill="#FBFBFB" d="M360.5,380.1c-1.7,0-3.3,0-5,0c-0.8,0-1.2-0.2-1-1.1c0.5-2.7,3-5,5.8-5.1c3.1-0.2,5.4,1.6,6.1,4.5
		c0.4,1.5,0.2,1.7-1.3,1.7C363.6,380.1,362,380.1,360.5,380.1z"/>
	<path fill="#FBFBFB" d="M476.3,297c-4.1,0-7.5-3.5-7.5-7.5c0-4,3.5-7.4,7.6-7.4c4,0,7.3,3.4,7.4,7.4
		C483.8,293.6,480.4,297,476.3,297z"/>
	<path fill="#FBFBFB" d="M302.1,123.3c-4.1,0-7.5-3.5-7.4-7.6c0.1-4.1,3.6-7.4,7.7-7.3c4,0.1,7.4,3.6,7.3,7.5
		C309.6,119.9,306.1,123.3,302.1,123.3z"/>
	<path fill="#FBFBFB" d="M445.5,202.5c0-4.2,3.3-7.4,7.5-7.3c4.1,0,7.3,3.3,7.3,7.3c0,4.1-3.3,7.5-7.4,7.5
		C448.8,210,445.5,206.7,445.5,202.5z"/>
	<path fill="#FBFBFB" d="M215.2,146.7c-4.1,0-7.6-3.5-7.5-7.5c0-4.1,3.6-7.5,7.6-7.5c4,0.1,7.4,3.5,7.4,7.4
		C222.7,143.2,219.3,146.7,215.2,146.7z"/>
	<path fill="#FBFBFB" d="M128.5,297.5c-4.1,0-7.5-3.4-7.5-7.5c0-4.1,3.5-7.5,7.5-7.5c3.9,0.1,7.4,3.5,7.4,7.4
		C136,293.9,132.5,297.4,128.5,297.5z"/>
	<path fill="#FBFBFB" d="M151.6,195.6c4.1,0,7.5,3.3,7.5,7.4c0,4-3.5,7.5-7.6,7.4c-4,0-7.5-3.6-7.4-7.6
		C144.2,198.9,147.6,195.6,151.6,195.6z"/>
	<path fill="#FBFBFB" d="M302.7,471.2c-4.1,0-7.6-3.4-7.6-7.4c0-4,3.6-7.5,7.6-7.5c4,0,7.3,3.4,7.4,7.4
		C310.2,467.6,306.8,471.1,302.7,471.2z"/>
	<path fill="#B7DEE1" d="M312.8,331.1c0-2.4,0-2.4,1.6-2.4c2.1,0,3.1,0.7,3.1,2.2c0,1.7-0.9,2.2-3.5,2.2
		C311.9,333.2,313.2,331.6,312.8,331.1z"/>
	<path fill="#B7DEE1" d="M302.3,334.1c-0.1,1-0.2,2.1-0.5,3.2c-0.4,1.4-1.4,2-2.8,1.9c-1.3-0.1-2.2-1-2.2-2.3
		c-0.1-1.9-0.1-3.8,0-5.6c0.1-1.4,1.2-2.4,2.4-2.5c1.2-0.1,2.4,0.8,2.7,2.2C302.2,331.8,302.2,332.9,302.3,334.1z"/>
	<path fill="#2D4451" d="M389.7,152.4c-4.4-0.2-8.2-1.8-10.7-5.5c-2.9-4.2-3-9.7-0.3-13.8c2.9-4.5,7.9-6.5,13.3-5.5
		c4.7,0.9,8.5,4.8,9.6,9.7c0.1,0.5,0.3,1.1,0.4,1.6c0.8,4.3-0.9,7.7-3.9,10.5C395.8,151.5,393.1,153,389.7,152.4z"/>
	<path fill="#FBFBFB" d="M389.2,147.2c-4.1,0-7.5-3.5-7.4-7.6c0.1-4.1,3.6-7.4,7.7-7.3c4,0.1,7.4,3.6,7.3,7.5
		C396.8,143.8,393.2,147.3,389.2,147.2z"/>
</g>
</svg>
