<?xml version="1.0" encoding="utf-8"?>
<!-- Generator: Adobe Illustrator 28.3.0, SVG Export Plug-In . SVG Version: 6.00 Build 0)  -->
<svg version="1.1" id="Layer_1" xmlns="http://www.w3.org/2000/svg" xmlns:xlink="http://www.w3.org/1999/xlink" x="0px" y="0px"
	 viewBox="0 0 600 600" enable-background="new 0 0 600 600" xml:space="preserve">
<g id="EslEaE.tif">
	<g>
		<path fill="#01739C" d="M380.5,247.9c0,8.5,0.2,16.4-0.1,24.2c-0.2,4.8,1.4,6,6.1,5.5c14-1.4,27.4,0.5,38.3,10.4
			c14.1,12.8,16.6,34,6.7,54.5c-12.1,25.2-33.2,38-59.9,42.5c-18.2,3.1-36.8,4.4-54.8,8.1c-17,3.5-32.1,11.9-45.2,23.4
			c-20.9,18.3-45.7,24.7-72.7,26.2c-12.8,0.7-25.9,1.4-38.1,4.8c-29.6,8.1-37,34.3-16.1,56.9c12.3,13.3,26.4,25,40.3,36.6
			c17.6,14.8,35.9,28.9,53.8,43.4c1.6,1.3,2.3,3.6,3.5,5.5c-2,0.6-4.1,1.8-6.1,1.8c-55.9,0.1-111.8,0.1-167.7,0
			c-2.1,0-5.2-0.5-6.3-1.9C44,566.3,28,541.5,20.5,512.2c-10.1-39.7,9.7-70.1,38.3-89.1c16.6-11.1,35.4-16.3,55.1-16.8
			c25.8-0.7,51.5-0.2,77.3-0.2c19.5,0,36.9-4.6,52.1-18.3c22.9-20.7,51.4-27.3,81.5-28.6c16.3-0.7,32.8-1.1,48.8-3.9
			c13.9-2.5,25.1-10.8,31.8-25c-22.9,0-45.1,0-67.3,0c-16,0-32.1,0.1-48.1-0.2c-11.4-0.2-18.9-8.1-18.9-19.5
			c0.1-49.7,0.2-99.3,0.4-149c0-11,6.7-18,17.7-18.2c11.1-0.3,22.2-0.1,33.6-0.1c0-35.5,0-70,0-104.6c0-19.5,7.2-26.7,26.8-26.7
			c47.3,0,94.6-0.2,141.9,0.3c5.2,0.1,11.7,2.7,15.5,6.3c26.1,25,51.6,50.7,77.4,76c5.1,5,7.4,10.5,7.4,17.7
			c-0.2,64.5-0.1,129-0.1,193.5c0,16.5-7.7,24.1-24.4,24.1c-24.8,0-49.6,0-74.7,0c-3.4,24.8-13.1,46.6-28.7,65.6
			c-22.6,27.4-51.7,43.3-86.8,48.2c-16.8,2.4-33.8,3.5-48.5,13.4c-7.6,5.2-13.3,11.4-12.7,21.5c0.5,9.1,6.1,15.1,13.3,18.7
			c15.4,7.8,31.3,14.7,47.1,21.6c52.1,22.5,104.3,44.8,156.5,67.2c1.8,0.8,3.3,2.1,6.8,4.4c-4,0.7-6,1.3-7.9,1.3
			c-72.1,0-144.3,0-216.4-0.2c-3.6,0-7.8-1.2-10.7-3.3c-41.1-29.7-82.1-59.6-123-89.5c-6.3-4.6-15-8.9-11.9-18.7
			c2.9-9.3,12.5-7,19.7-8.1c17.1-2.7,34.4-4,51.3-7.5c17.5-3.6,33.5-11.8,47.2-23.4c20.8-17.5,44.8-23.3,71.3-24.8
			c49.3-2.7,90.5-31.9,102.7-79.2c5.6-21.5,4.7-42.7-8-61.8c-12.6-19-31.8-26.1-53.6-27.4C394.1,247.6,387.6,247.9,380.5,247.9z
			 M510.9,298.6c16.5,0,32.1,0.1,47.7-0.2c1.4,0,3.9-3.3,3.9-5c0.4-56.7,0.4-113.3,0.8-170c0-6.2-2-7.4-7.7-7.3
			c-21.9,0.4-43.8,0.3-65.6,0.3c-8.2,0-10.9-2.8-10.9-10.8c0-18.4-0.2-36.7,0.1-55.1c0.1-6.4-2.3-8.7-8.6-8.6
			c-36.7,0.1-73.5,0.1-110.2-0.1c-6.2,0-8.6,1.8-8.5,8.4c0.3,29.1,0.3,58.2,0.2,87.3c0,4.6,1.7,5.7,5.9,5.7
			c43.4-0.1,86.7,0,130.1-0.2c14.9-0.1,22.8,7.2,22.8,22.4c0,37.1,0,74.2,0,111.4C510.9,283.5,510.9,290.5,510.9,298.6z M391,188.1
			c0,0.1,0,0.2,0,0.4c-9.4,0-18.7,0-28.1,0c-5.7,0-10.4,1-10.6,8.4c-0.2,12.3,1.4,16,9.8,16.2c19.5,0.4,39,0.2,58.5-0.2
			c6.9-0.1,10.6-5.7,10.4-13.6c-0.2-7.2-4.1-11.1-11.3-11.2C410.1,188,400.6,188.1,391,188.1z"/>
		<path fill="#01739C" d="M218.1,77c0.4-3.3,0.2-5.4-4.3-5.5c-13.4-0.1-21.4-13.9-15.1-25.8c0.6-1.1,2.8-2.1,4.1-1.9
			c0.9,0.1,1.9,2.1,2.2,3.5c0.5,1.7,0.2,3.7,0.7,5.4c0.9,3.3,2.8,5.1,6.6,5c11.1-0.2,22.2-0.2,33.2,0c4,0.1,8.1,0.5,12,1.3
			c10.9,2.1,21.2-6.4,22-18.4c0.1-1.1-0.2-2.3,0.1-3.3c0.4-1.2,1.4-3.2,1.9-3.2c1.4,0.2,3.5,0.9,4,2c6.6,16.6,2.5,30.4-14.8,37.7
			c-3.4,1.4-4.7,2.9-4.6,6.7c0.1,13.3-0.2,26.6-0.5,39.9c-0.2,8.1-5,12.6-13.1,12.6c-3.3,0-6.7-0.2-10,0c-5.8,0.4-9.4-2.3-11.9-7.4
			c-1.2-2.4-3.4-4.4-5.1-6.6c-0.4,2.5-1.3,5.1-1.1,7.6c0.5,6.6-1.1,12.4-5.7,17.3c-3.8,4.1-3.9,9.4-4.1,14.6c-0.2,7.5,0,15-0.1,22.5
			c-0.1,8.7-4,12.5-12.7,12.5c-4.2,0-8.4,0-12.6,0.1c-7.9,0.1-11.5-3.4-11.6-11.4c-0.1-9.8-0.1-19.7,0-29.5c0-3.9-1.5-5.6-5.5-5.6
			c-28.6-0.1-57.1-0.3-85.7-0.4c-8.1,0-15.9,5-18.6,12.2c-0.5,1.4,0.2,3.3,0.2,5c0.1,6.4,0.2,12.8,0.1,19.2
			c-0.2,6.2-4.7,10.5-10.9,10.5c-5.2,0-10.3,0.1-15.5,0c-8-0.2-11.1-3.4-11.1-11.4c0-30.5,0-61.1,0.1-91.6c0-1.5,0-3.1,0-5.6
			c-4,5.2-7.7,9.2-7,15.6c0.6,5.2,0,10.6,0.2,15.9c0.1,3.2-1.7,3.7-4.2,3.7c-2.5,0-4.7-0.2-4.7-3.7c0.1-7.4,0-14.8,0.1-22.2
			c0-1,0.1-2,0.5-2.9C20.6,80,27.7,70.6,37.5,63.5c2.4-1.8,6.3-2.1,9.5-2.1c47.6,0.1,95.3,0.3,142.9,0.6c1.1,0,2.7,1.2,3.3,2.3
			C198.6,74.1,207.2,78.7,218.1,77z"/>
		<path fill="#F7F4F2" d="M510.9,298.6c0-8,0-15,0-22c0-37.1,0-74.2,0-111.4c0-15.1-7.9-22.4-22.8-22.4
			c-43.4,0.2-86.7,0.1-130.1,0.2c-4.2,0-5.9-1.1-5.9-5.7c0.1-29.1,0.2-58.2-0.2-87.3c-0.1-6.6,2.4-8.4,8.5-8.4
			c36.7,0.2,73.5,0.2,110.2,0.1c6.2,0,8.7,2.2,8.6,8.6c-0.3,18.4-0.1,36.7-0.1,55.1c0,8,2.7,10.8,10.9,10.8
			c21.9,0,43.8,0.1,65.6-0.3c5.7-0.1,7.7,1.2,7.7,7.3c-0.4,56.7-0.4,113.3-0.8,170c0,1.8-2.5,5-3.9,5
			C543,298.7,527.4,298.6,510.9,298.6z"/>
		<path fill="#F7F4F2" d="M391,188.1c9.6,0,19.1-0.1,28.7,0c7.3,0.1,11.1,4,11.3,11.2c0.2,7.8-3.5,13.4-10.4,13.6
			c-19.5,0.4-39,0.6-58.5,0.2c-8.4-0.2-10.1-3.9-9.8-16.2c0.1-7.5,4.9-8.4,10.6-8.4c9.4,0,18.7,0,28.1,0
			C391,188.3,391,188.2,391,188.1z"/>
	</g>
</g>
</svg>
