<?xml version="1.0" encoding="utf-8"?>
<!-- Generator: Adobe Illustrator 28.3.0, SVG Export Plug-In . SVG Version: 6.00 Build 0)  -->
<svg version="1.1"
	 id="svg924" xmlns:rdf="http://www.w3.org/1999/02/22-rdf-syntax-ns#" xmlns:inkscape="http://www.inkscape.org/namespaces/inkscape" xmlns:svg="http://www.w3.org/2000/svg" xmlns:sodipodi="http://sodipodi.sourceforge.net/DTD/sodipodi-0.dtd" xmlns:cc="http://creativecommons.org/ns#" xmlns:dc="http://purl.org/dc/elements/1.1/"
	 xmlns="http://www.w3.org/2000/svg" xmlns:xlink="http://www.w3.org/1999/xlink" x="0px" y="0px" viewBox="0 0 800 696"
	 style="enable-background:new 0 0 800 696;" xml:space="preserve">
<style type="text/css">
	.st0{fill:#E57000;}
</style>
<path id="path1290" inkscape:connector-curvature="0" sodipodi:nodetypes="ccscccccscc" class="st0" d="M595.9,347.2l201.1,221
	C774.8,591,743.9,605,710,605c-36.1,0-67.8-15.5-89.9-39.8L508.9,443L422,347.2l86.9-95l111.2-122.3c22.1-24.3,53.8-39.8,89.9-39.8
	c33.9,0,64.8,14,86.9,36.1L595.9,347.2z"/>
<path id="path1292" inkscape:connector-curvature="0" sodipodi:nodetypes="ccscccccscc" class="st0" d="M203.7,347.2L2.6,568.2
	C24.7,591,55.6,605,89.5,605c36.1,0,67.8-15.5,89.9-39.8L290.6,443l86.9-95.8l-86.9-95L179.4,129.9c-22.1-24.3-53.8-39.8-89.9-39.8
	c-33.9,0-64.8,14-86.9,36.1L203.7,347.2z"/>
<path id="path1294" inkscape:connector-curvature="0" sodipodi:nodetypes="ccccscccscc" d="M479,456.8l-79.3-87.4l-79.3,87.4
	L136.8,658.5c20.2,20.2,48.4,32.9,79.3,32.9c32.9,0,60.5-13.5,81.4-36.3l102.2-111.6l101.5,111.6c20.2,22.2,49.1,36.3,82,36.3
	c30.9,0,59.2-12.8,79.3-32.9L479,456.8z"/>
<path id="path1296" inkscape:connector-curvature="0" sodipodi:nodetypes="ccccscccscc" d="M479,237.6L399.7,325l-79.3-87.4
	L136.8,35.9C156.9,15.8,185.2,3,216.1,3c32.9,0,60.5,13.5,81.4,36.3l102.2,111.6L501.2,39.3C521.3,17.1,550.2,3,583.2,3
	c30.9,0,59.2,12.8,79.3,32.9L479,237.6z"/>
</svg>
