<?xml version="1.0" encoding="utf-8"?>
<!-- Generator: Adobe Illustrator 28.3.0, SVG Export Plug-In . SVG Version: 6.00 Build 0)  -->
<svg version="1.1" id="Layer_1" xmlns="http://www.w3.org/2000/svg" xmlns:xlink="http://www.w3.org/1999/xlink" x="0px" y="0px"
	 viewBox="0 0 21.1 22.6" style="enable-background:new 0 0 21.1 22.6;" xml:space="preserve">
<style type="text/css">
	.st0{fill:#DC4B40;}
</style>
<path class="st0" d="M1.9,5l5.9-3.7c1.6-1,3.6-1,5.2,0L19,5c0.5,0.3,0.8,0.8,0.8,1.4v9.8c0,0.6-0.3,1.1-0.8,1.4L13,21.3
	c-1.6,1-3.6,1-5.2,0l-5.9-3.7c-0.5-0.3-0.8-0.8-0.8-1.4V6.4C1.1,5.9,1.4,5.3,1.9,5z M12.9,15.9c-0.2-0.9-1.1-1.6-1.5-1.8l-3.7-2.2
	c-0.4-0.2-2.4-1.5-3.2-3.8C4.5,8,4.4,8,4.4,8C4.3,8,4.2,8,4.2,8.1v6.3c0,0.3,0.2,0.7,0.5,0.8l0.7,0.4c0.1,0.1,0.3,0,0.4-0.1l0.9-1.6
	c0.1-0.1,0.3-0.2,0.4-0.1l2.9,1.7c0.1,0.1,0.2,0.3,0.1,0.4l-0.9,1.6c-0.1,0.2,0,0.4,0.1,0.4C9.7,18,10,18.2,10,18.2
	c0.7,0.2,1.8,0.3,2.2-0.4C12.6,17.2,13,16.6,12.9,15.9L12.9,15.9z M16.6,8.2c0-0.3-0.2-0.7-0.5-0.8l-0.7-0.4c-0.1-0.1-0.3,0-0.4,0.1
	l-1,1.7C14,8.9,13.8,9,13.6,8.9l-2.9-1.7c-0.1-0.1-0.2-0.3-0.1-0.4l0.9-1.7c0.1-0.2,0-0.4-0.1-0.4c-0.3-0.1-0.6-0.3-0.7-0.3
	C10.1,4.2,9,4.1,8.5,4.8C8.2,5.3,7.8,6,8,6.6c0.2,0.9,1.1,1.6,1.5,1.8l3.7,2.2c0.4,0.2,2.4,1.5,3.2,3.8c0,0.1,0.1,0.1,0.1,0.1
	c0.1,0,0.1-0.1,0.1-0.1V8.2L16.6,8.2z"/>
</svg>
