<?xml version="1.0" encoding="utf-8"?>
<!-- Generator: Adobe Illustrator 28.3.0, SVG Export Plug-In . SVG Version: 6.00 Build 0)  -->
<svg version="1.1" id="Layer_1" xmlns="http://www.w3.org/2000/svg" xmlns:xlink="http://www.w3.org/1999/xlink" x="0px" y="0px"
	 viewBox="0 0 200 200" style="enable-background:new 0 0 200 200;" xml:space="preserve">
<style type="text/css">
	.st0{fill:#24A1C1;}
</style>
<g id="TraefikProxy-vertical-logo-color">
	<path id="Shape" class="st0" d="M99.3,17c8.3,0,15.6,5.8,15.6,13c0,7.2-7,13-15.6,13c-1,0-2.3-0.2-3.9-0.5c-1.2-0.3-2.5,0-3.6,0.6
		L35.9,74.9c-1.2,0.7-1.7,2.3-1,3.5c0.2,0.4,0.6,0.8,1,1l60.6,34.1c1.6,0.9,3.5,0.9,5.1,0l61-33.9c1.3-0.7,1.7-2.3,1-3.5
		c-0.2-0.4-0.6-0.8-1-1l-19-10.8c-1.6-0.9-3.5-0.9-5.1,0l-20.1,11.1c-0.5,0.3-0.8,0.8-0.9,1.4l0,0.2l0,0c0,7.2-7,13-15.6,13
		s-15.6-5.8-15.6-13c0-7.2,7-13,15.6-13c0.3,0,0.7,0,1.1,0.1l0.7,0.1l0,0l0.7,0.1l0,0c1.1,0.2,2.2-0.1,3.2-0.6l29.7-16.5
		c2.3-1.3,5-1.3,7.3-0.1l0.3,0.2l41.5,23.6c5.2,3,5.3,10.4,0.2,13.4l-0.3,0.2l-27.7,15.4c-1.3,0.7-1.7,2.3-1,3.5
		c0.2,0.4,0.6,0.8,1.1,1l27.5,14.5c5.5,2.9,5.6,10.6,0.2,13.7L102.9,180c-2.4,1.4-5.3,1.4-7.7,0l-83-47.4
		c-5.4-3.1-5.2-10.8,0.3-13.7l27.8-14.5c1.3-0.7,1.8-2.2,1.1-3.5c-0.2-0.4-0.6-0.8-1-1.1L12.2,84C7,81.1,6.9,73.7,11.9,70.6l0.3-0.2
		l69-39.3c1.1-0.6,1.9-1.6,2.3-2.8l0.1-0.3l0,0C86.1,20.9,91.6,17,99.3,17z M137.8,112.8l-34.1,19.6l-0.3,0.2
		c-2.3,1.2-5.1,1.2-7.4-0.1l-34-19.2c-1.5-0.9-3.4-0.9-4.9-0.1l-19.6,10.3c-1.3,0.7-1.8,2.2-1.1,3.5c0.2,0.4,0.6,0.8,1,1.1
		l59.8,34.3c1.6,0.9,3.5,0.9,5.1,0l60.4-34.5c1.2-0.7,1.7-2.3,1-3.6c-0.2-0.4-0.6-0.8-1-1l-19.9-10.5
		C141.3,111.9,139.4,111.9,137.8,112.8z"/>
</g>
</svg>
