<?xml version="1.0" encoding="utf-8"?>
<!-- Generator: Adobe Illustrator 28.3.0, SVG Export Plug-In . SVG Version: 6.00 Build 0)  -->
<svg version="1.1" id="Layer_1" xmlns:serif="http://www.serif.com/"
	 xmlns="http://www.w3.org/2000/svg" xmlns:xlink="http://www.w3.org/1999/xlink" x="0px" y="0px" viewBox="0 0 800 800"
	 style="enable-background:new 0 0 800 800;" xml:space="preserve">
<style type="text/css">
	.st0{fill-rule:evenodd;clip-rule:evenodd;fill:#101010;}
	.st1{fill-rule:evenodd;clip-rule:evenodd;fill:url(#SVGID_1_);}
	.st2{fill-rule:evenodd;clip-rule:evenodd;fill:url(#SVGID_00000139259824019948752500000017662405599860191361_);}
	.st3{fill-rule:evenodd;clip-rule:evenodd;fill:url(#SVGID_00000020359067817483410230000015507773574369936302_);}
	.st4{fill-rule:evenodd;clip-rule:evenodd;fill:url(#SVGID_00000091705430521894296520000015615265271865570201_);}
	.st5{fill-rule:evenodd;clip-rule:evenodd;fill:url(#SVGID_00000039101445393714022300000000913978782149835144_);}
	.st6{fill-rule:evenodd;clip-rule:evenodd;fill:url(#SVGID_00000126290332435630942900000001477674651429113738_);}
	.st7{fill:none;}
</style>
<g transform="matrix(1,0,0,1,0,-107)">
	<g id="zitadel-logo-dark" transform="matrix(1,0,0,1,-20.9181,18.2562)">
		<g transform="matrix(2.73916,0,0,1.55095,-35271.3,23.6234)">
			<g transform="matrix(0.160219,-0.0758207,0.0429306,0.282967,12622.8,-105.843)">
				<path class="st0" d="M2357.8,2548.7l0-221.1l34.2,0l0,280.9l-804.2-470.6l804.2-467.7l0,280.8h-34.2l0-221.3l-702,408.3
					L2357.8,2548.7z"/>
			</g>
			<g>
				<g transform="matrix(-0.0429306,-0.282967,0.160219,-0.0758207,12884.5,137.392)">
					
						<linearGradient id="SVGID_1_" gradientUnits="userSpaceOnUse" x1="-1384.7545" y1="-372.3085" x2="-1380.547" y2="-372.3085" gradientTransform="matrix(-171.5012 -99.0172 -99.0165 171.5002 -275175.5625 -73449.7969)">
						<stop  offset="0" style="stop-color:#FF8F00"/>
						<stop  offset="1" style="stop-color:#FE00FF"/>
					</linearGradient>
					<path class="st1" d="M-670.3,199.6l-138.3,0L-927.2-5.8l-118.6,205.4l-138.3,0l256.9-445L-670.3,199.6z"/>
				</g>
				<g transform="matrix(0.160219,0.0758207,-0.0429306,0.282967,12878.9,10.8747)">
					
						<linearGradient id="SVGID_00000032636606781586310610000006012139446890511293_" gradientUnits="userSpaceOnUse" x1="515.5374" y1="1798.2804" x2="519.7449" y2="1798.2804" gradientTransform="matrix(171.5002 -99.0165 -99.0172 -171.5012 89802.4297 359783.4062)">
						<stop  offset="0" style="stop-color:#FF8F00"/>
						<stop  offset="1" style="stop-color:#FE00FF"/>
					</linearGradient>
					<path style="fill-rule:evenodd;clip-rule:evenodd;fill:url(#SVGID_00000032636606781586310610000006012139446890511293_);" d="
						M1555.2,211.6l-138.3,0L1298.3,6.2l-118.6,205.4l-138.3,0l256.9-445L1555.2,211.6z"/>
				</g>
				<g transform="matrix(-0.117289,0.207146,-0.117289,-0.207146,12943.8,65.7)">
					
						<linearGradient id="SVGID_00000079474561268977178470000012224469357470785156_" gradientUnits="userSpaceOnUse" x1="1439.4264" y1="-932.1371" x2="1443.6339" y2="-932.1371" gradientTransform="matrix(7.312447e-05 198.0333 198.0333 7.312447e-05 185829.8906 -285836.75)">
						<stop  offset="0" style="stop-color:#FF8F00"/>
						<stop  offset="1" style="stop-color:#FE00FF"/>
					</linearGradient>
					<path style="fill-rule:evenodd;clip-rule:evenodd;fill:url(#SVGID_00000079474561268977178470000012224469357470785156_);" d="
						M453.5-1727.8H315.1l-118.6-205.4L78-1727.8H-60.4l256.9-445L453.5-1727.8z"/>
				</g>
				<g transform="matrix(-0.160219,-0.0758207,0.0429306,-0.282967,12917.4,132.195)">
					
						<linearGradient id="SVGID_00000011030263635403793270000012119439765946003643_" gradientUnits="userSpaceOnUse" x1="-182.4955" y1="-1452.083" x2="-178.2879" y2="-1452.083" gradientTransform="matrix(171.5002 -99.0165 -99.0172 -171.5012 -112644.1094 -268328.8438)">
						<stop  offset="0" style="stop-color:#FF8F00"/>
						<stop  offset="1" style="stop-color:#FE00FF"/>
					</linearGradient>
					<path style="fill-rule:evenodd;clip-rule:evenodd;fill:url(#SVGID_00000011030263635403793270000012119439765946003643_);" d="
						M-987.1-1160.5l107,285.3l-214,0L-987.1-1160.5z"/>
				</g>
				<g transform="matrix(-0.117289,0.207146,0.117289,0.207146,12897.8,5.87512)">
					
						<linearGradient id="SVGID_00000033370458465491983380000015187706264173000609_" gradientUnits="userSpaceOnUse" x1="1390.7161" y1="1275.6011" x2="1394.9236" y2="1275.6011" gradientTransform="matrix(7.312447e-05 -198.0333 -198.0333 7.312447e-05 253209.0312 275939.4688)">
						<stop  offset="0" style="stop-color:#FF8F00"/>
						<stop  offset="1" style="stop-color:#FE00FF"/>
					</linearGradient>
					<path style="fill-rule:evenodd;clip-rule:evenodd;fill:url(#SVGID_00000033370458465491983380000015187706264173000609_);" d="
						M159.9,773.2l107,285.3h-214L159.9,773.2z"/>
				</g>
				<g transform="matrix(-0.0429306,-0.282967,-0.160219,0.0758207,12936.8,97.6441)">
					
						<linearGradient id="SVGID_00000132052041926335498830000014666791227757876654_" gradientUnits="userSpaceOnUse" x1="-1435.4199" y1="712.3095" x2="-1431.2123" y2="712.3095" gradientTransform="matrix(-171.5012 99.0172 99.0165 171.5002 -317339.75 20431.1504)">
						<stop  offset="0" style="stop-color:#FF8F00"/>
						<stop  offset="1" style="stop-color:#FE00FF"/>
					</linearGradient>
					<path style="fill-rule:evenodd;clip-rule:evenodd;fill:url(#SVGID_00000132052041926335498830000014666791227757876654_);" d="
						M-987.2-1145.6l107,285.3l-214,0L-987.2-1145.6z"/>
				</g>
			</g>
			<g transform="matrix(0.160219,-0.0758207,0.0429306,0.282967,12622.6,-105.767)">
				
					<ellipse transform="matrix(0.9985 -5.551376e-02 5.551376e-02 0.9985 -104.6107 134.7716)" class="st0" cx="2373.5" cy="1950.3" rx="36.3" ry="36.3"/>
			</g>
			<g transform="matrix(0.160219,-0.0758207,0.0429306,0.282967,12624.1,-96.4295)">
				
					<ellipse transform="matrix(0.9985 -5.551376e-02 5.551376e-02 0.9985 -123.7484 135.5839)" class="st0" cx="2378.6" cy="2295.2" rx="36.3" ry="36.3"/>
			</g>
			<g transform="matrix(0.160219,-0.0758207,0.0429306,0.282967,12625,-90.2042)">
				
					<ellipse transform="matrix(0.9985 -5.551378e-02 5.551378e-02 0.9985 -136.4269 135.7876)" class="st0" cx="2375.9" cy="2523.5" rx="36.3" ry="36.3"/>
			</g>
			<g transform="matrix(0.160219,-0.0758207,0.0429306,0.282967,12612.8,-96.1272)">
				
					<ellipse transform="matrix(0.9985 -5.551376e-02 5.551376e-02 0.9985 -115.1954 97.1342)" class="st0" cx="1690.8" cy="2122" rx="36.3" ry="36.3"/>
			</g>
			<g transform="matrix(0.160219,-0.0758207,0.0429306,0.282967,12621.7,-111.993)">
				
					<ellipse transform="matrix(0.9985 -5.551376e-02 5.551376e-02 0.9985 -91.9316 134.5716)" class="st0" cx="2376.3" cy="1722" rx="36.3" ry="36.3"/>
			</g>
			<g transform="matrix(0.160219,-0.0758207,0.0375643,0.247596,12637.2,-10.9628)">
				<path class="st0" d="M2423.9,1773.2c0,0-21.6-14.8-25.8-29.5c-3.3-11.6-4.9-51.8-5.2-59.3c-1.5-30.8,30.5-49.7,30.5-49.7
					l-105,2.2c0,0,35.8-1.4,39.4,47.5c0.6,7.5-2.6,39.7-5.2,59.3c-1,14.2-20.5,28.2-20.5,28.2L2423.9,1773.2z"/>
			</g>
			<g transform="matrix(0.160219,-0.0758207,0.0375643,0.247596,12639.5,4.60032)">
				<path class="st7" d="M2371.6,2451.6l0-182.6"/>
			</g>
			<g transform="matrix(0.160219,-0.0758207,0.0375643,0.247596,12639.5,4.60032)">
				<path class="st0" d="M2408.9,2418.3c0,0-17.8-7-18.5-26c0-13-0.1-17.3,0-31.8c-0.3-7.8-0.7-16.1,0-23.6
					c1.5-35.5,21.1-43.3,21.1-43.3l-80.3-2.6c0,0,21.8,9,25,44.5c0.7,7.5,0.5,19.4,0,27.1c-0.1,12.8-0.1,13.7,0,26.3
					c0.3,20.7-12.2,26.3-12.2,26.3L2408.9,2418.3z"/>
			</g>
			<g transform="matrix(0.160219,-0.0758207,0.0375643,0.247596,12627.7,-0.733956)">
				<path class="st7" d="M1718.7,2017.3l677.4-450.2"/>
			</g>
			<g transform="matrix(0.160219,-0.0758207,0.0375643,0.247596,12627.7,-0.733956)">
				<path class="st0" d="M1772.2,2046.8c0,0-11.4-18.9,25.4-52.5c20.8-18.9,48.4-37.7,78.6-59.3c55.2-39.5,122.1-83.5,188.7-127.9
					c56.3-37.5,112.5-75,163.2-106.9c42.2-26.6,80.2-50,110.9-67.1c6-3.4,12.1-5.4,17.2-8.8c30.6-20.2,54.8-0.7,54.8-0.7l-52.7-99.1
					c0,0-2.7,36.2-25.4,53.8c-4.9,3.8-9.7,8.5-15.2,12.8c-28.2,22.1-64.8,48.2-105.9,77c-49.4,34.6-105.7,71.9-162,109.2
					c-66.6,44.2-133.2,89-190.6,124.3c-31.4,19.3-59.4,37.1-84,48.7c-35.8,17-66.7,0.2-66.7,0.2L1772.2,2046.8z"/>
			</g>
			<g transform="matrix(0.160219,-0.0758207,-0.0375643,-0.247596,12684.9,376.33)">
				<path class="st7" d="M1718.3-539.4l677.4-450.2"/>
			</g>
			<g transform="matrix(0.160219,-0.0758207,-0.0375643,-0.247596,12684.9,376.33)">
				<path class="st0" d="M1717.5-597.7c0,0,12.6,14.2,57.4-8.7c24.2-12.4,52.6-29.4,84-48.7c57.4-35.3,123.9-80,190.6-124.3
					c56.4-37.3,111.3-75.4,160.7-109.9c41.1-28.8,115.1-76.9,120.3-80.5c33.5-23,27-40.6,27-40.6l35.4,68c0,0-17.2-14.2-44.6,6
					c-5,3.7-78.2,53.3-120.4,79.9c-50.7,31.9-106.9,69.4-163.2,106.9c-66.6,44.4-133.5,88.3-188.7,127.9
					c-30.2,21.6-58.1,40.1-78.6,59.3c-41.3,38.6-20.9,66.5-20.9,66.5L1717.5-597.7z"/>
			</g>
		</g>
	</g>
</g>
</svg>
