<?xml version="1.0" encoding="UTF-8" standalone="no"?>
<!DOCTYPE svg PUBLIC "-//W3C//DTD SVG 1.1//EN"
 "http://www.w3.org/Graphics/SVG/1.1/DTD/svg11.dtd">
<!-- Generated by graphviz version 13.0.1 (20250615.1724)
 -->
<!-- Pages: 1 -->
<svg width="4560pt" height="692pt"
 viewBox="0.00 0.00 4560.00 692.00" xmlns="http://www.w3.org/2000/svg" xmlns:xlink="http://www.w3.org/1999/xlink">
<g id="graph0" class="graph" transform="scale(1 1) rotate(0) translate(4 688)">
<polygon fill="white" stroke="none" points="-4,4 -4,-688 4556.08,-688 4556.08,4 -4,4"/>
<!-- [root] module.setup_container.proxmox_virtual_environment_container.container -->
<g id="node1" class="node">
<title>[root] module.setup_container.proxmox_virtual_environment_container.container</title>
<polygon fill="none" stroke="black" points="1021.82,-396 594.82,-396 594.82,-360 1021.82,-360 1021.82,-396"/>
<text xml:space="preserve" text-anchor="middle" x="808.32" y="-372.95" font-family="Times,serif" font-size="14.00">module.setup_container.proxmox_virtual_environment_container.container</text>
</g>
<!-- [root] module.setup_container.ssh_resource.install_openssh -->
<g id="node4" class="node">
<title>[root] module.setup_container.ssh_resource.install_openssh</title>
<polygon fill="none" stroke="black" points="743.44,-324 437.19,-324 437.19,-288 743.44,-288 743.44,-324"/>
<text xml:space="preserve" text-anchor="middle" x="590.32" y="-300.95" font-family="Times,serif" font-size="14.00">module.setup_container.ssh_resource.install_openssh</text>
</g>
<!-- [root] module.setup_container.proxmox_virtual_environment_container.container&#45;&gt;[root] module.setup_container.ssh_resource.install_openssh -->
<g id="edge1" class="edge">
<title>[root] module.setup_container.proxmox_virtual_environment_container.container&#45;&gt;[root] module.setup_container.ssh_resource.install_openssh</title>
<path fill="none" stroke="black" d="M753.87,-359.52C723.97,-349.92 686.7,-337.95 655.29,-327.86"/>
<polygon fill="black" stroke="black" points="656.48,-324.57 645.89,-324.84 654.34,-331.23 656.48,-324.57"/>
</g>
<!-- [root] provider[&quot;registry.opentofu.org/bpg/proxmox&quot;] -->
<g id="node7" class="node">
<title>[root] provider[&quot;registry.opentofu.org/bpg/proxmox&quot;]</title>
<polygon fill="none" stroke="black" points="1026.32,-324 761.89,-306 1026.32,-288 1290.75,-306 1026.32,-324"/>
<text xml:space="preserve" text-anchor="middle" x="1026.32" y="-300.95" font-family="Times,serif" font-size="14.00">provider[&quot;registry.opentofu.org/bpg/proxmox&quot;]</text>
</g>
<!-- [root] module.setup_container.proxmox_virtual_environment_container.container&#45;&gt;[root] provider[&quot;registry.opentofu.org/bpg/proxmox&quot;] -->
<g id="edge2" class="edge">
<title>[root] module.setup_container.proxmox_virtual_environment_container.container&#45;&gt;[root] provider[&quot;registry.opentofu.org/bpg/proxmox&quot;]</title>
<path fill="none" stroke="black" d="M862.76,-359.52C895.62,-348.97 937.39,-335.55 970.49,-324.92"/>
<polygon fill="black" stroke="black" points="971.47,-328.29 979.92,-321.9 969.33,-321.62 971.47,-328.29"/>
</g>
<!-- [root] module.setup_container.proxmox_virtual_environment_download_file.template -->
<g id="node2" class="node">
<title>[root] module.setup_container.proxmox_virtual_environment_download_file.template</title>
<polygon fill="none" stroke="black" points="1034.57,-468 582.07,-468 582.07,-432 1034.57,-432 1034.57,-468"/>
<text xml:space="preserve" text-anchor="middle" x="808.32" y="-444.95" font-family="Times,serif" font-size="14.00">module.setup_container.proxmox_virtual_environment_download_file.template</text>
</g>
<!-- [root] module.setup_container.proxmox_virtual_environment_download_file.template&#45;&gt;[root] module.setup_container.proxmox_virtual_environment_container.container -->
<g id="edge3" class="edge">
<title>[root] module.setup_container.proxmox_virtual_environment_download_file.template&#45;&gt;[root] module.setup_container.proxmox_virtual_environment_container.container</title>
<path fill="none" stroke="black" d="M808.32,-431.7C808.32,-424.41 808.32,-415.73 808.32,-407.54"/>
<polygon fill="black" stroke="black" points="811.82,-407.62 808.32,-397.62 804.82,-407.62 811.82,-407.62"/>
</g>
<!-- [root] module.setup_container.random_password.root_password -->
<g id="node3" class="node">
<title>[root] module.setup_container.random_password.root_password</title>
<polygon fill="none" stroke="black" points="484.57,-468 152.07,-468 152.07,-432 484.57,-432 484.57,-468"/>
<text xml:space="preserve" text-anchor="middle" x="318.32" y="-444.95" font-family="Times,serif" font-size="14.00">module.setup_container.random_password.root_password</text>
</g>
<!-- [root] module.setup_container.random_password.root_password&#45;&gt;[root] module.setup_container.proxmox_virtual_environment_container.container -->
<g id="edge4" class="edge">
<title>[root] module.setup_container.random_password.root_password&#45;&gt;[root] module.setup_container.proxmox_virtual_environment_container.container</title>
<path fill="none" stroke="black" d="M440.7,-431.52C512.02,-421.33 602.01,-408.47 675.1,-398.03"/>
<polygon fill="black" stroke="black" points="675.32,-401.54 684.72,-396.66 674.33,-394.61 675.32,-401.54"/>
</g>
<!-- [root] provider[&quot;registry.opentofu.org/hashicorp/random&quot;] -->
<g id="node8" class="node">
<title>[root] provider[&quot;registry.opentofu.org/hashicorp/random&quot;]</title>
<polygon fill="none" stroke="black" points="288.32,-396 0,-378 288.32,-360 576.63,-378 288.32,-396"/>
<text xml:space="preserve" text-anchor="middle" x="288.32" y="-372.95" font-family="Times,serif" font-size="14.00">provider[&quot;registry.opentofu.org/hashicorp/random&quot;]</text>
</g>
<!-- [root] module.setup_container.random_password.root_password&#45;&gt;[root] provider[&quot;registry.opentofu.org/hashicorp/random&quot;] -->
<g id="edge5" class="edge">
<title>[root] module.setup_container.random_password.root_password&#45;&gt;[root] provider[&quot;registry.opentofu.org/hashicorp/random&quot;]</title>
<path fill="none" stroke="black" d="M310.9,-431.7C307.58,-423.95 303.59,-414.64 299.89,-406.02"/>
<polygon fill="black" stroke="black" points="303.19,-404.83 296.04,-397.01 296.76,-407.58 303.19,-404.83"/>
</g>
<!-- [root] module.setup_container.ssh_resource.install_packages -->
<g id="node5" class="node">
<title>[root] module.setup_container.ssh_resource.install_packages</title>
<polygon fill="none" stroke="black" points="746.44,-252 434.19,-252 434.19,-216 746.44,-216 746.44,-252"/>
<text xml:space="preserve" text-anchor="middle" x="590.32" y="-228.95" font-family="Times,serif" font-size="14.00">module.setup_container.ssh_resource.install_packages</text>
</g>
<!-- [root] module.setup_container.ssh_resource.install_openssh&#45;&gt;[root] module.setup_container.ssh_resource.install_packages -->
<g id="edge6" class="edge">
<title>[root] module.setup_container.ssh_resource.install_openssh&#45;&gt;[root] module.setup_container.ssh_resource.install_packages</title>
<path fill="none" stroke="black" d="M590.32,-287.7C590.32,-280.41 590.32,-271.73 590.32,-263.54"/>
<polygon fill="black" stroke="black" points="593.82,-263.62 590.32,-253.62 586.82,-263.62 593.82,-263.62"/>
</g>
<!-- [root] ssh_resource.configure_container -->
<g id="node11" class="node">
<title>[root] ssh_resource.configure_container</title>
<polygon fill="none" stroke="black" points="689.44,-180 491.19,-180 491.19,-144 689.44,-144 689.44,-180"/>
<text xml:space="preserve" text-anchor="middle" x="590.32" y="-156.95" font-family="Times,serif" font-size="14.00">ssh_resource.configure_container</text>
</g>
<!-- [root] module.setup_container.ssh_resource.install_packages&#45;&gt;[root] ssh_resource.configure_container -->
<g id="edge7" class="edge">
<title>[root] module.setup_container.ssh_resource.install_packages&#45;&gt;[root] ssh_resource.configure_container</title>
<path fill="none" stroke="black" d="M590.32,-215.7C590.32,-208.41 590.32,-199.73 590.32,-191.54"/>
<polygon fill="black" stroke="black" points="593.82,-191.62 590.32,-181.62 586.82,-191.62 593.82,-191.62"/>
</g>
<!-- [root] module.setup_container.tls_private_key.ssh_key -->
<g id="node6" class="node">
<title>[root] module.setup_container.tls_private_key.ssh_key</title>
<polygon fill="none" stroke="black" points="1385.94,-468 1106.69,-468 1106.69,-432 1385.94,-432 1385.94,-468"/>
<text xml:space="preserve" text-anchor="middle" x="1246.32" y="-444.95" font-family="Times,serif" font-size="14.00">module.setup_container.tls_private_key.ssh_key</text>
</g>
<!-- [root] module.setup_container.tls_private_key.ssh_key&#45;&gt;[root] module.setup_container.proxmox_virtual_environment_container.container -->
<g id="edge8" class="edge">
<title>[root] module.setup_container.tls_private_key.ssh_key&#45;&gt;[root] module.setup_container.proxmox_virtual_environment_container.container</title>
<path fill="none" stroke="black" d="M1136.92,-431.52C1073.57,-421.39 993.72,-408.63 928.6,-398.22"/>
<polygon fill="black" stroke="black" points="929.38,-394.8 918.95,-396.68 928.27,-401.72 929.38,-394.8"/>
</g>
<!-- [root] provider[&quot;registry.opentofu.org/hashicorp/tls&quot;] -->
<g id="node9" class="node">
<title>[root] provider[&quot;registry.opentofu.org/hashicorp/tls&quot;]</title>
<polygon fill="none" stroke="black" points="1300.32,-396 1040.23,-378 1300.32,-360 1560.4,-378 1300.32,-396"/>
<text xml:space="preserve" text-anchor="middle" x="1300.32" y="-372.95" font-family="Times,serif" font-size="14.00">provider[&quot;registry.opentofu.org/hashicorp/tls&quot;]</text>
</g>
<!-- [root] module.setup_container.tls_private_key.ssh_key&#45;&gt;[root] provider[&quot;registry.opentofu.org/hashicorp/tls&quot;] -->
<g id="edge9" class="edge">
<title>[root] module.setup_container.tls_private_key.ssh_key&#45;&gt;[root] provider[&quot;registry.opentofu.org/hashicorp/tls&quot;]</title>
<path fill="none" stroke="black" d="M1259.66,-431.7C1266.06,-423.4 1273.85,-413.31 1280.89,-404.19"/>
<polygon fill="black" stroke="black" points="1283.6,-406.4 1286.94,-396.34 1278.06,-402.12 1283.6,-406.4"/>
</g>
<!-- [root] var.proxmox (expand, reference) -->
<g id="node34" class="node">
<title>[root] var.proxmox (expand, reference)</title>
<ellipse fill="none" stroke="black" cx="1026.32" cy="-234" rx="156.78" ry="18"/>
<text xml:space="preserve" text-anchor="middle" x="1026.32" y="-228.95" font-family="Times,serif" font-size="14.00">[root] var.proxmox (expand, reference)</text>
</g>
<!-- [root] provider[&quot;registry.opentofu.org/bpg/proxmox&quot;]&#45;&gt;[root] var.proxmox (expand, reference) -->
<g id="edge11" class="edge">
<title>[root] provider[&quot;registry.opentofu.org/bpg/proxmox&quot;]&#45;&gt;[root] var.proxmox (expand, reference)</title>
<path fill="none" stroke="black" d="M1026.32,-287.7C1026.32,-280.41 1026.32,-271.73 1026.32,-263.54"/>
<polygon fill="black" stroke="black" points="1029.82,-263.62 1026.32,-253.62 1022.82,-263.62 1029.82,-263.62"/>
</g>
<!-- [root] provider[&quot;registry.opentofu.org/loafoe/ssh&quot;] -->
<g id="node10" class="node">
<title>[root] provider[&quot;registry.opentofu.org/loafoe/ssh&quot;]</title>
<polygon fill="none" stroke="black" points="590.32,-36 343.98,-18 590.32,0 836.65,-18 590.32,-36"/>
<text xml:space="preserve" text-anchor="middle" x="590.32" y="-12.95" font-family="Times,serif" font-size="14.00">provider[&quot;registry.opentofu.org/loafoe/ssh&quot;]</text>
</g>
<!-- [root] ssh_resource.configure_host[0] -->
<g id="node12" class="node">
<title>[root] ssh_resource.configure_host[0]</title>
<polygon fill="none" stroke="black" points="675.57,-108 505.07,-108 505.07,-72 675.57,-72 675.57,-108"/>
<text xml:space="preserve" text-anchor="middle" x="590.32" y="-84.95" font-family="Times,serif" font-size="14.00">ssh_resource.configure_host</text>
</g>
<!-- [root] ssh_resource.configure_container&#45;&gt;[root] ssh_resource.configure_host[0] -->
<g id="edge40" class="edge">
<title>[root] ssh_resource.configure_container&#45;&gt;[root] ssh_resource.configure_host[0]</title>
<path fill="none" stroke="black" d="M590.32,-143.7C590.32,-136.41 590.32,-127.73 590.32,-119.54"/>
<polygon fill="black" stroke="black" points="593.82,-119.62 590.32,-109.62 586.82,-119.62 593.82,-119.62"/>
</g>
<!-- [root] ssh_resource.configure_host[0]&#45;&gt;[root] provider[&quot;registry.opentofu.org/loafoe/ssh&quot;] -->
<g id="edge41" class="edge">
<title>[root] ssh_resource.configure_host[0]&#45;&gt;[root] provider[&quot;registry.opentofu.org/loafoe/ssh&quot;]</title>
<path fill="none" stroke="black" d="M590.32,-71.7C590.32,-64.41 590.32,-55.73 590.32,-47.54"/>
<polygon fill="black" stroke="black" points="593.82,-47.62 590.32,-37.62 586.82,-47.62 593.82,-47.62"/>
</g>
<!-- [root] ssh_resource.revert_host -->
<g id="node13" class="node">
<title>[root] ssh_resource.revert_host</title>
<polygon fill="none" stroke="black" points="1185.44,-540 1035.19,-540 1035.19,-504 1185.44,-504 1185.44,-540"/>
<text xml:space="preserve" text-anchor="middle" x="1110.32" y="-516.95" font-family="Times,serif" font-size="14.00">ssh_resource.revert_host</text>
</g>
<!-- [root] ssh_resource.revert_host&#45;&gt;[root] module.setup_container.proxmox_virtual_environment_download_file.template -->
<g id="edge42" class="edge">
<title>[root] ssh_resource.revert_host&#45;&gt;[root] module.setup_container.proxmox_virtual_environment_download_file.template</title>
<path fill="none" stroke="black" d="M1034.89,-503.52C992.29,-493.64 938.88,-481.26 894.61,-471"/>
<polygon fill="black" stroke="black" points="895.57,-467.63 885.04,-468.78 893.99,-474.45 895.57,-467.63"/>
</g>
<!-- [root] ssh_resource.revert_host&#45;&gt;[root] module.setup_container.random_password.root_password -->
<g id="edge43" class="edge">
<title>[root] ssh_resource.revert_host&#45;&gt;[root] module.setup_container.random_password.root_password</title>
<path fill="none" stroke="black" d="M1034.84,-505.26C1031.96,-504.81 1029.12,-504.39 1026.32,-504 975.25,-496.95 688.58,-476.48 496.04,-463.14"/>
<polygon fill="black" stroke="black" points="496.37,-459.66 486.16,-462.46 495.89,-466.64 496.37,-459.66"/>
</g>
<!-- [root] ssh_resource.revert_host&#45;&gt;[root] module.setup_container.tls_private_key.ssh_key -->
<g id="edge44" class="edge">
<title>[root] ssh_resource.revert_host&#45;&gt;[root] module.setup_container.tls_private_key.ssh_key</title>
<path fill="none" stroke="black" d="M1144.28,-503.52C1161.94,-494.43 1183.72,-483.22 1202.62,-473.49"/>
<polygon fill="black" stroke="black" points="1204.15,-476.64 1211.44,-468.95 1200.94,-470.42 1204.15,-476.64"/>
</g>
<!-- [root] var.acme_contact -->
<g id="node14" class="node">
<title>[root] var.acme_contact</title>
<polygon fill="none" stroke="black" points="1476.94,-612 1371.69,-612 1371.69,-576 1482.94,-576 1482.94,-606 1476.94,-612"/>
<polyline fill="none" stroke="black" points="1476.94,-612 1476.94,-606"/>
<polyline fill="none" stroke="black" points="1482.94,-606 1476.94,-606"/>
<text xml:space="preserve" text-anchor="middle" x="1427.32" y="-588.95" font-family="Times,serif" font-size="14.00">var.acme_contact</text>
</g>
<!-- [root] var.acme_name -->
<g id="node15" class="node">
<title>[root] var.acme_name</title>
<polygon fill="none" stroke="black" points="1597.44,-612 1501.19,-612 1501.19,-576 1603.44,-576 1603.44,-606 1597.44,-612"/>
<polyline fill="none" stroke="black" points="1597.44,-612 1597.44,-606"/>
<polyline fill="none" stroke="black" points="1603.44,-606 1597.44,-606"/>
<text xml:space="preserve" text-anchor="middle" x="1552.32" y="-588.95" font-family="Times,serif" font-size="14.00">var.acme_name</text>
</g>
<!-- [root] var.acme_proxmox_domains -->
<g id="node16" class="node">
<title>[root] var.acme_proxmox_domains</title>
<polygon fill="none" stroke="black" points="1790.82,-612 1621.82,-612 1621.82,-576 1796.82,-576 1796.82,-606 1790.82,-612"/>
<polyline fill="none" stroke="black" points="1790.82,-612 1790.82,-606"/>
<polyline fill="none" stroke="black" points="1796.82,-606 1790.82,-606"/>
<text xml:space="preserve" text-anchor="middle" x="1709.32" y="-588.95" font-family="Times,serif" font-size="14.00">var.acme_proxmox_domains</text>
</g>
<!-- [root] var.description -->
<g id="node17" class="node">
<title>[root] var.description</title>
<polygon fill="none" stroke="black" points="1905.44,-612 1815.19,-612 1815.19,-576 1911.44,-576 1911.44,-606 1905.44,-612"/>
<polyline fill="none" stroke="black" points="1905.44,-612 1905.44,-606"/>
<polyline fill="none" stroke="black" points="1911.44,-606 1905.44,-606"/>
<text xml:space="preserve" text-anchor="middle" x="1863.32" y="-588.95" font-family="Times,serif" font-size="14.00">var.description</text>
</g>
<!-- [root] var.fingerprint_file -->
<g id="node18" class="node">
<title>[root] var.fingerprint_file</title>
<polygon fill="none" stroke="black" points="2042.69,-612 1929.94,-612 1929.94,-576 2048.69,-576 2048.69,-606 2042.69,-612"/>
<polyline fill="none" stroke="black" points="2042.69,-612 2042.69,-606"/>
<polyline fill="none" stroke="black" points="2048.69,-606 2042.69,-606"/>
<text xml:space="preserve" text-anchor="middle" x="1989.32" y="-588.95" font-family="Times,serif" font-size="14.00">var.fingerprint_file</text>
</g>
<!-- [root] var.hostname -->
<g id="node19" class="node">
<title>[root] var.hostname</title>
<polygon fill="none" stroke="black" points="2149.69,-612 2066.94,-612 2066.94,-576 2155.69,-576 2155.69,-606 2149.69,-612"/>
<polyline fill="none" stroke="black" points="2149.69,-612 2149.69,-606"/>
<polyline fill="none" stroke="black" points="2155.69,-606 2149.69,-606"/>
<text xml:space="preserve" text-anchor="middle" x="2111.32" y="-588.95" font-family="Times,serif" font-size="14.00">var.hostname</text>
</g>
<!-- [root] var.imagestore_id -->
<g id="node20" class="node">
<title>[root] var.imagestore_id</title>
<polygon fill="none" stroke="black" points="2281.07,-612 2173.57,-612 2173.57,-576 2287.07,-576 2287.07,-606 2281.07,-612"/>
<polyline fill="none" stroke="black" points="2281.07,-612 2281.07,-606"/>
<polyline fill="none" stroke="black" points="2287.07,-606 2281.07,-606"/>
<text xml:space="preserve" text-anchor="middle" x="2230.32" y="-588.95" font-family="Times,serif" font-size="14.00">var.imagestore_id</text>
</g>
<!-- [root] var.mount_points -->
<g id="node21" class="node">
<title>[root] var.mount_points</title>
<polygon fill="none" stroke="black" points="2409.94,-612 2304.69,-612 2304.69,-576 2415.94,-576 2415.94,-606 2409.94,-612"/>
<polyline fill="none" stroke="black" points="2409.94,-612 2409.94,-606"/>
<polyline fill="none" stroke="black" points="2415.94,-606 2409.94,-606"/>
<text xml:space="preserve" text-anchor="middle" x="2360.32" y="-588.95" font-family="Times,serif" font-size="14.00">var.mount_points</text>
</g>
<!-- [root] var.ni_bridge -->
<g id="node22" class="node">
<title>[root] var.ni_bridge</title>
<polygon fill="none" stroke="black" points="2516.32,-612 2434.32,-612 2434.32,-576 2522.32,-576 2522.32,-606 2516.32,-612"/>
<polyline fill="none" stroke="black" points="2516.32,-612 2516.32,-606"/>
<polyline fill="none" stroke="black" points="2522.32,-606 2516.32,-606"/>
<text xml:space="preserve" text-anchor="middle" x="2478.32" y="-588.95" font-family="Times,serif" font-size="14.00">var.ni_bridge</text>
</g>
<!-- [root] var.ni_gateway -->
<g id="node23" class="node">
<title>[root] var.ni_gateway</title>
<polygon fill="none" stroke="black" points="2632.57,-612 2540.07,-612 2540.07,-576 2638.57,-576 2638.57,-606 2632.57,-612"/>
<polyline fill="none" stroke="black" points="2632.57,-612 2632.57,-606"/>
<polyline fill="none" stroke="black" points="2638.57,-606 2632.57,-606"/>
<text xml:space="preserve" text-anchor="middle" x="2589.32" y="-588.95" font-family="Times,serif" font-size="14.00">var.ni_gateway</text>
</g>
<!-- [root] var.ni_ip -->
<g id="node24" class="node">
<title>[root] var.ni_ip</title>
<polygon fill="none" stroke="black" points="2714.32,-612 2656.32,-612 2656.32,-576 2720.32,-576 2720.32,-606 2714.32,-612"/>
<polyline fill="none" stroke="black" points="2714.32,-612 2714.32,-606"/>
<polyline fill="none" stroke="black" points="2720.32,-606 2714.32,-606"/>
<text xml:space="preserve" text-anchor="middle" x="2688.32" y="-588.95" font-family="Times,serif" font-size="14.00">var.ni_ip</text>
</g>
<!-- [root] var.ni_mac_address -->
<g id="node25" class="node">
<title>[root] var.ni_mac_address</title>
<polygon fill="none" stroke="black" points="2856.32,-612 2738.32,-612 2738.32,-576 2862.32,-576 2862.32,-606 2856.32,-612"/>
<polyline fill="none" stroke="black" points="2856.32,-612 2856.32,-606"/>
<polyline fill="none" stroke="black" points="2862.32,-606 2856.32,-606"/>
<text xml:space="preserve" text-anchor="middle" x="2800.32" y="-588.95" font-family="Times,serif" font-size="14.00">var.ni_mac_address</text>
</g>
<!-- [root] var.ni_name -->
<g id="node26" class="node">
<title>[root] var.ni_name</title>
<polygon fill="none" stroke="black" points="2958.07,-612 2880.57,-612 2880.57,-576 2964.07,-576 2964.07,-606 2958.07,-612"/>
<polyline fill="none" stroke="black" points="2958.07,-612 2958.07,-606"/>
<polyline fill="none" stroke="black" points="2964.07,-606 2958.07,-606"/>
<text xml:space="preserve" text-anchor="middle" x="2922.32" y="-588.95" font-family="Times,serif" font-size="14.00">var.ni_name</text>
</g>
<!-- [root] var.ni_subnet_mask -->
<g id="node27" class="node">
<title>[root] var.ni_subnet_mask</title>
<polygon fill="none" stroke="black" points="3100.69,-612 2981.94,-612 2981.94,-576 3106.69,-576 3106.69,-606 3100.69,-612"/>
<polyline fill="none" stroke="black" points="3100.69,-612 3100.69,-606"/>
<polyline fill="none" stroke="black" points="3106.69,-606 3100.69,-606"/>
<text xml:space="preserve" text-anchor="middle" x="3044.32" y="-588.95" font-family="Times,serif" font-size="14.00">var.ni_subnet_mask</text>
</g>
<!-- [root] var.proxmox -->
<g id="node28" class="node">
<title>[root] var.proxmox</title>
<polygon fill="none" stroke="black" points="1063.19,-180 983.44,-180 983.44,-144 1069.19,-144 1069.19,-174 1063.19,-180"/>
<polyline fill="none" stroke="black" points="1063.19,-180 1063.19,-174"/>
<polyline fill="none" stroke="black" points="1069.19,-174 1063.19,-174"/>
<text xml:space="preserve" text-anchor="middle" x="1026.32" y="-156.95" font-family="Times,serif" font-size="14.00">var.proxmox</text>
</g>
<!-- [root] var.skip_host_configuration -->
<g id="node29" class="node">
<title>[root] var.skip_host_configuration</title>
<polygon fill="none" stroke="black" points="3286.07,-612 3124.57,-612 3124.57,-576 3292.07,-576 3292.07,-606 3286.07,-612"/>
<polyline fill="none" stroke="black" points="3286.07,-612 3286.07,-606"/>
<polyline fill="none" stroke="black" points="3292.07,-606 3286.07,-606"/>
<text xml:space="preserve" text-anchor="middle" x="3208.32" y="-588.95" font-family="Times,serif" font-size="14.00">var.skip_host_configuration</text>
</g>
<!-- [root] var.startup_order -->
<g id="node30" class="node">
<title>[root] var.startup_order</title>
<polygon fill="none" stroke="black" points="3412.44,-612 3310.19,-612 3310.19,-576 3418.44,-576 3418.44,-606 3412.44,-612"/>
<polyline fill="none" stroke="black" points="3412.44,-612 3412.44,-606"/>
<polyline fill="none" stroke="black" points="3418.44,-606 3412.44,-606"/>
<text xml:space="preserve" text-anchor="middle" x="3364.32" y="-588.95" font-family="Times,serif" font-size="14.00">var.startup_order</text>
</g>
<!-- [root] var.tags -->
<g id="node31" class="node">
<title>[root] var.tags</title>
<polygon fill="none" stroke="black" points="3488.32,-612 3436.32,-612 3436.32,-576 3494.32,-576 3494.32,-606 3488.32,-612"/>
<polyline fill="none" stroke="black" points="3488.32,-612 3488.32,-606"/>
<polyline fill="none" stroke="black" points="3494.32,-606 3488.32,-606"/>
<text xml:space="preserve" text-anchor="middle" x="3465.32" y="-588.95" font-family="Times,serif" font-size="14.00">var.tags</text>
</g>
<!-- [root] var.vm_id -->
<g id="node32" class="node">
<title>[root] var.vm_id</title>
<polygon fill="none" stroke="black" points="3578.07,-612 3512.57,-612 3512.57,-576 3584.07,-576 3584.07,-606 3578.07,-612"/>
<polyline fill="none" stroke="black" points="3578.07,-612 3578.07,-606"/>
<polyline fill="none" stroke="black" points="3584.07,-606 3578.07,-606"/>
<text xml:space="preserve" text-anchor="middle" x="3548.32" y="-588.95" font-family="Times,serif" font-size="14.00">var.vm_id</text>
</g>
<!-- [root] provider[&quot;registry.opentofu.org/bpg/proxmox&quot;] (close) -->
<g id="node33" class="node">
<title>[root] provider[&quot;registry.opentofu.org/bpg/proxmox&quot;] (close)</title>
<ellipse fill="none" stroke="black" cx="779.32" cy="-522" rx="238.16" ry="18"/>
<text xml:space="preserve" text-anchor="middle" x="779.32" y="-516.95" font-family="Times,serif" font-size="14.00">[root] provider[&quot;registry.opentofu.org/bpg/proxmox&quot;] (close)</text>
</g>
<!-- [root] provider[&quot;registry.opentofu.org/bpg/proxmox&quot;] (close)&#45;&gt;[root] module.setup_container.proxmox_virtual_environment_download_file.template -->
<g id="edge10" class="edge">
<title>[root] provider[&quot;registry.opentofu.org/bpg/proxmox&quot;] (close)&#45;&gt;[root] module.setup_container.proxmox_virtual_environment_download_file.template</title>
<path fill="none" stroke="black" d="M786.48,-503.7C789.61,-496.15 793.35,-487.12 796.85,-478.68"/>
<polygon fill="black" stroke="black" points="800.06,-480.08 800.65,-469.5 793.59,-477.4 800.06,-480.08"/>
</g>
<!-- [root] var.proxmox (expand, reference)&#45;&gt;[root] var.proxmox -->
<g id="edge45" class="edge">
<title>[root] var.proxmox (expand, reference)&#45;&gt;[root] var.proxmox</title>
<path fill="none" stroke="black" d="M1026.32,-215.7C1026.32,-208.41 1026.32,-199.73 1026.32,-191.54"/>
<polygon fill="black" stroke="black" points="1029.82,-191.62 1026.32,-181.62 1022.82,-191.62 1029.82,-191.62"/>
</g>
<!-- [root] provider[&quot;registry.opentofu.org/hashicorp/random&quot;] (close) -->
<g id="node35" class="node">
<title>[root] provider[&quot;registry.opentofu.org/hashicorp/random&quot;] (close)</title>
<ellipse fill="none" stroke="black" cx="268.32" cy="-522" rx="255.05" ry="18"/>
<text xml:space="preserve" text-anchor="middle" x="268.32" y="-516.95" font-family="Times,serif" font-size="14.00">[root] provider[&quot;registry.opentofu.org/hashicorp/random&quot;] (close)</text>
</g>
<!-- [root] provider[&quot;registry.opentofu.org/hashicorp/random&quot;] (close)&#45;&gt;[root] module.setup_container.random_password.root_password -->
<g id="edge12" class="edge">
<title>[root] provider[&quot;registry.opentofu.org/hashicorp/random&quot;] (close)&#45;&gt;[root] module.setup_container.random_password.root_password</title>
<path fill="none" stroke="black" d="M280.68,-503.7C286.37,-495.73 293.24,-486.1 299.56,-477.26"/>
<polygon fill="black" stroke="black" points="302.25,-479.51 305.22,-469.34 296.56,-475.44 302.25,-479.51"/>
</g>
<!-- [root] provider[&quot;registry.opentofu.org/hashicorp/tls&quot;] (close) -->
<g id="node36" class="node">
<title>[root] provider[&quot;registry.opentofu.org/hashicorp/tls&quot;] (close)</title>
<ellipse fill="none" stroke="black" cx="1438.32" cy="-522" rx="235.09" ry="18"/>
<text xml:space="preserve" text-anchor="middle" x="1438.32" y="-516.95" font-family="Times,serif" font-size="14.00">[root] provider[&quot;registry.opentofu.org/hashicorp/tls&quot;] (close)</text>
</g>
<!-- [root] provider[&quot;registry.opentofu.org/hashicorp/tls&quot;] (close)&#45;&gt;[root] module.setup_container.tls_private_key.ssh_key -->
<g id="edge13" class="edge">
<title>[root] provider[&quot;registry.opentofu.org/hashicorp/tls&quot;] (close)&#45;&gt;[root] module.setup_container.tls_private_key.ssh_key</title>
<path fill="none" stroke="black" d="M1391.35,-503.88C1365.28,-494.37 1332.61,-482.46 1304.89,-472.35"/>
<polygon fill="black" stroke="black" points="1306.15,-469.09 1295.56,-468.95 1303.75,-475.67 1306.15,-469.09"/>
</g>
<!-- [root] provider[&quot;registry.opentofu.org/loafoe/ssh&quot;] (close) -->
<g id="node37" class="node">
<title>[root] provider[&quot;registry.opentofu.org/loafoe/ssh&quot;] (close)</title>
<ellipse fill="none" stroke="black" cx="1090.32" cy="-594" rx="225.37" ry="18"/>
<text xml:space="preserve" text-anchor="middle" x="1090.32" y="-588.95" font-family="Times,serif" font-size="14.00">[root] provider[&quot;registry.opentofu.org/loafoe/ssh&quot;] (close)</text>
</g>
<!-- [root] provider[&quot;registry.opentofu.org/loafoe/ssh&quot;] (close)&#45;&gt;[root] ssh_resource.revert_host -->
<g id="edge14" class="edge">
<title>[root] provider[&quot;registry.opentofu.org/loafoe/ssh&quot;] (close)&#45;&gt;[root] ssh_resource.revert_host</title>
<path fill="none" stroke="black" d="M1095.26,-575.7C1097.39,-568.24 1099.94,-559.32 1102.33,-550.97"/>
<polygon fill="black" stroke="black" points="1105.63,-552.14 1105.01,-541.56 1098.9,-550.21 1105.63,-552.14"/>
</g>
<!-- [root] root -->
<g id="node38" class="node">
<title>[root] root</title>
<ellipse fill="none" stroke="black" cx="2478.32" cy="-666" rx="49.3" ry="18"/>
<text xml:space="preserve" text-anchor="middle" x="2478.32" y="-660.95" font-family="Times,serif" font-size="14.00">[root] root</text>
</g>
<!-- [root] root&#45;&gt;[root] var.acme_contact -->
<g id="edge22" class="edge">
<title>[root] root&#45;&gt;[root] var.acme_contact</title>
<path fill="none" stroke="black" d="M2429.13,-663.67C2259.31,-658.89 1697.37,-641.32 1494.31,-612.05"/>
<polygon fill="black" stroke="black" points="1495.09,-608.63 1484.68,-610.6 1494.05,-615.55 1495.09,-608.63"/>
</g>
<!-- [root] root&#45;&gt;[root] var.acme_name -->
<g id="edge23" class="edge">
<title>[root] root&#45;&gt;[root] var.acme_name</title>
<path fill="none" stroke="black" d="M2428.65,-665.59C2297.1,-666.39 1928.85,-663.62 1614.87,-612.01"/>
<polygon fill="black" stroke="black" points="1615.66,-608.59 1605.22,-610.4 1614.51,-615.49 1615.66,-608.59"/>
</g>
<!-- [root] root&#45;&gt;[root] var.acme_proxmox_domains -->
<g id="edge24" class="edge">
<title>[root] root&#45;&gt;[root] var.acme_proxmox_domains</title>
<path fill="none" stroke="black" d="M2429.67,-662.75C2320.49,-657.35 2047.51,-641.96 1808.64,-612.22"/>
<polygon fill="black" stroke="black" points="1809.15,-608.76 1798.79,-610.98 1808.28,-615.7 1809.15,-608.76"/>
</g>
<!-- [root] root&#45;&gt;[root] var.description -->
<g id="edge25" class="edge">
<title>[root] root&#45;&gt;[root] var.description</title>
<path fill="none" stroke="black" d="M2429.07,-663.46C2333.27,-659.78 2115.13,-648.09 1923.04,-612.09"/>
<polygon fill="black" stroke="black" points="1923.85,-608.68 1913.37,-610.25 1922.54,-615.56 1923.85,-608.68"/>
</g>
<!-- [root] root&#45;&gt;[root] var.fingerprint_file -->
<g id="edge26" class="edge">
<title>[root] root&#45;&gt;[root] var.fingerprint_file</title>
<path fill="none" stroke="black" d="M2430.8,-660.82C2354.65,-653.72 2200.45,-637.72 2060.01,-612.19"/>
<polygon fill="black" stroke="black" points="2061.02,-608.81 2050.55,-610.44 2059.75,-615.7 2061.02,-608.81"/>
</g>
<!-- [root] root&#45;&gt;[root] var.hostname -->
<g id="edge27" class="edge">
<title>[root] root&#45;&gt;[root] var.hostname</title>
<path fill="none" stroke="black" d="M2432.14,-659.31C2372.76,-651.54 2266.36,-636.06 2167.13,-612.51"/>
<polygon fill="black" stroke="black" points="2168.02,-609.13 2157.48,-610.19 2166.38,-615.93 2168.02,-609.13"/>
</g>
<!-- [root] root&#45;&gt;[root] var.imagestore_id -->
<g id="edge28" class="edge">
<title>[root] root&#45;&gt;[root] var.imagestore_id</title>
<path fill="none" stroke="black" d="M2440.11,-654.22C2402.45,-643.59 2344.09,-627.11 2298.48,-614.24"/>
<polygon fill="black" stroke="black" points="2299.5,-610.89 2288.93,-611.54 2297.6,-617.63 2299.5,-610.89"/>
</g>
<!-- [root] root&#45;&gt;[root] var.mount_points -->
<g id="edge29" class="edge">
<title>[root] root&#45;&gt;[root] var.mount_points</title>
<path fill="none" stroke="black" d="M2453.29,-650.15C2437.54,-640.81 2416.88,-628.55 2399.04,-617.97"/>
<polygon fill="black" stroke="black" points="2401.15,-615.16 2390.77,-613.06 2397.58,-621.18 2401.15,-615.16"/>
</g>
<!-- [root] root&#45;&gt;[root] var.ni_bridge -->
<g id="edge30" class="edge">
<title>[root] root&#45;&gt;[root] var.ni_bridge</title>
<path fill="none" stroke="black" d="M2478.32,-647.7C2478.32,-640.41 2478.32,-631.73 2478.32,-623.54"/>
<polygon fill="black" stroke="black" points="2481.82,-623.62 2478.32,-613.62 2474.82,-623.62 2481.82,-623.62"/>
</g>
<!-- [root] root&#45;&gt;[root] var.ni_gateway -->
<g id="edge31" class="edge">
<title>[root] root&#45;&gt;[root] var.ni_gateway</title>
<path fill="none" stroke="black" d="M2502.4,-649.81C2517.01,-640.6 2535.94,-628.66 2552.4,-618.28"/>
<polygon fill="black" stroke="black" points="2553.89,-621.48 2560.48,-613.19 2550.15,-615.56 2553.89,-621.48"/>
</g>
<!-- [root] root&#45;&gt;[root] var.ni_ip -->
<g id="edge32" class="edge">
<title>[root] root&#45;&gt;[root] var.ni_ip</title>
<path fill="none" stroke="black" d="M2516.23,-654.16C2548.4,-644.74 2595.96,-630.26 2645.58,-612.48"/>
<polygon fill="black" stroke="black" points="2646.56,-615.85 2654.77,-609.15 2644.18,-609.27 2646.56,-615.85"/>
</g>
<!-- [root] root&#45;&gt;[root] var.ni_mac_address -->
<g id="edge33" class="edge">
<title>[root] root&#45;&gt;[root] var.ni_mac_address</title>
<path fill="none" stroke="black" d="M2520.58,-656.44C2568.28,-646.69 2648.49,-630.07 2726.94,-612.51"/>
<polygon fill="black" stroke="black" points="2727.53,-615.96 2736.52,-610.35 2726,-609.13 2727.53,-615.96"/>
</g>
<!-- [root] root&#45;&gt;[root] var.ni_name -->
<g id="edge34" class="edge">
<title>[root] root&#45;&gt;[root] var.ni_name</title>
<path fill="none" stroke="black" d="M2526.33,-661.45C2598.79,-655.45 2740.44,-641.26 2868.99,-612.29"/>
<polygon fill="black" stroke="black" points="2869.75,-615.71 2878.71,-610.06 2868.19,-608.88 2869.75,-615.71"/>
</g>
<!-- [root] root&#45;&gt;[root] var.ni_subnet_mask -->
<g id="edge35" class="edge">
<title>[root] root&#45;&gt;[root] var.ni_subnet_mask</title>
<path fill="none" stroke="black" d="M2526.73,-661.89C2613.72,-655.85 2802.33,-640.71 2970.39,-612.39"/>
<polygon fill="black" stroke="black" points="2970.93,-615.85 2980.19,-610.71 2969.75,-608.95 2970.93,-615.85"/>
</g>
<!-- [root] root&#45;&gt;[root] var.skip_host_configuration -->
<g id="edge36" class="edge">
<title>[root] root&#45;&gt;[root] var.skip_host_configuration</title>
<path fill="none" stroke="black" d="M2527.24,-662.56C2632.46,-656.97 2888.27,-641.5 3112.88,-612.25"/>
<polygon fill="black" stroke="black" points="3113.27,-615.72 3122.72,-610.95 3112.35,-608.78 3113.27,-615.72"/>
</g>
<!-- [root] root&#45;&gt;[root] var.startup_order -->
<g id="edge37" class="edge">
<title>[root] root&#45;&gt;[root] var.startup_order</title>
<path fill="none" stroke="black" d="M2527.87,-665.23C2654.89,-665.1 3002.41,-660.14 3298.86,-612.21"/>
<polygon fill="black" stroke="black" points="3299.03,-615.73 3308.33,-610.66 3297.9,-608.82 3299.03,-615.73"/>
</g>
<!-- [root] root&#45;&gt;[root] var.tags -->
<g id="edge38" class="edge">
<title>[root] root&#45;&gt;[root] var.tags</title>
<path fill="none" stroke="black" d="M2527.9,-664.6C2694.28,-662.91 3232.54,-654.4 3425.14,-611.86"/>
<polygon fill="black" stroke="black" points="3425.81,-615.3 3434.76,-609.62 3424.23,-608.48 3425.81,-615.3"/>
</g>
<!-- [root] root&#45;&gt;[root] var.vm_id -->
<g id="edge39" class="edge">
<title>[root] root&#45;&gt;[root] var.vm_id</title>
<path fill="none" stroke="black" d="M2527.72,-664.46C2702.47,-662.26 3291.72,-652.12 3501.09,-611.97"/>
<polygon fill="black" stroke="black" points="3501.66,-615.42 3510.77,-610.02 3500.28,-608.56 3501.66,-615.42"/>
</g>
<!-- [root] root&#45;&gt;[root] provider[&quot;registry.opentofu.org/bpg/proxmox&quot;] (close) -->
<g id="edge18" class="edge">
<title>[root] root&#45;&gt;[root] provider[&quot;registry.opentofu.org/bpg/proxmox&quot;] (close)</title>
<path fill="none" stroke="black" d="M2428.7,-664.5C2164.16,-661.67 928.95,-646.65 856.32,-612 828.9,-598.92 807.36,-571.02 794.11,-549.92"/>
<polygon fill="black" stroke="black" points="797.21,-548.28 789.07,-541.5 791.21,-551.88 797.21,-548.28"/>
</g>
<!-- [root] root&#45;&gt;[root] provider[&quot;registry.opentofu.org/hashicorp/random&quot;] (close) -->
<g id="edge19" class="edge">
<title>[root] root&#45;&gt;[root] provider[&quot;registry.opentofu.org/hashicorp/random&quot;] (close)</title>
<path fill="none" stroke="black" d="M2428.79,-664.3C2187.82,-660.78 1136.34,-643.81 810.32,-612 650.59,-596.42 466.64,-562.86 359.34,-541.69"/>
<polygon fill="black" stroke="black" points="360.21,-538.3 349.72,-539.79 358.85,-545.17 360.21,-538.3"/>
</g>
<!-- [root] root&#45;&gt;[root] provider[&quot;registry.opentofu.org/hashicorp/tls&quot;] (close) -->
<g id="edge20" class="edge">
<title>[root] root&#45;&gt;[root] provider[&quot;registry.opentofu.org/hashicorp/tls&quot;] (close)</title>
<path fill="none" stroke="black" d="M2428.97,-664.53C2217.84,-662.29 1399.61,-651.11 1362.32,-612 1351.27,-600.42 1354.91,-590.19 1362.32,-576 1368.59,-563.97 1378.99,-554.11 1390.11,-546.3"/>
<polygon fill="black" stroke="black" points="1391.76,-549.4 1398.27,-541.04 1387.97,-543.51 1391.76,-549.4"/>
</g>
<!-- [root] root&#45;&gt;[root] provider[&quot;registry.opentofu.org/loafoe/ssh&quot;] (close) -->
<g id="edge21" class="edge">
<title>[root] root&#45;&gt;[root] provider[&quot;registry.opentofu.org/loafoe/ssh&quot;] (close)</title>
<path fill="none" stroke="black" d="M2429.3,-663.18C2270.4,-657.17 1755.18,-636.96 1329.32,-612 1307.65,-610.73 1284.88,-609.27 1262.36,-607.75"/>
<polygon fill="black" stroke="black" points="1262.7,-604.27 1252.49,-607.08 1262.23,-611.25 1262.7,-604.27"/>
</g>
<!-- [root] module.setup_container (close) -->
<g id="node39" class="node">
<title>[root] module.setup_container (close)</title>
<ellipse fill="none" stroke="black" cx="3753.32" cy="-594" rx="151.15" ry="18"/>
<text xml:space="preserve" text-anchor="middle" x="3753.32" y="-588.95" font-family="Times,serif" font-size="14.00">[root] module.setup_container (close)</text>
</g>
<!-- [root] root&#45;&gt;[root] module.setup_container (close) -->
<g id="edge15" class="edge">
<title>[root] root&#45;&gt;[root] module.setup_container (close)</title>
<path fill="none" stroke="black" d="M2527.56,-663.68C2683.75,-659.29 3181.99,-643.6 3593.32,-612 3607.05,-610.94 3621.43,-609.67 3635.7,-608.29"/>
<polygon fill="black" stroke="black" points="3635.99,-611.78 3645.6,-607.31 3635.3,-604.81 3635.99,-611.78"/>
</g>
<!-- [root] output.root_password (expand) -->
<g id="node40" class="node">
<title>[root] output.root_password (expand)</title>
<ellipse fill="none" stroke="black" cx="4072.32" cy="-594" rx="150.13" ry="18"/>
<text xml:space="preserve" text-anchor="middle" x="4072.32" y="-588.95" font-family="Times,serif" font-size="14.00">[root] output.root_password (expand)</text>
</g>
<!-- [root] root&#45;&gt;[root] output.root_password (expand) -->
<g id="edge16" class="edge">
<title>[root] root&#45;&gt;[root] output.root_password (expand)</title>
<path fill="none" stroke="black" d="M2527.64,-664.42C2711.03,-662.01 3370.92,-650.96 3913.32,-612 3927.33,-610.99 3942.01,-609.72 3956.56,-608.33"/>
<polygon fill="black" stroke="black" points="3956.52,-611.85 3966.13,-607.39 3955.84,-604.88 3956.52,-611.85"/>
</g>
<!-- [root] output.ssh_private_key (expand) -->
<g id="node41" class="node">
<title>[root] output.ssh_private_key (expand)</title>
<ellipse fill="none" stroke="black" cx="4396.32" cy="-594" rx="155.76" ry="18"/>
<text xml:space="preserve" text-anchor="middle" x="4396.32" y="-588.95" font-family="Times,serif" font-size="14.00">[root] output.ssh_private_key (expand)</text>
</g>
<!-- [root] root&#45;&gt;[root] output.ssh_private_key (expand) -->
<g id="edge17" class="edge">
<title>[root] root&#45;&gt;[root] output.ssh_private_key (expand)</title>
<path fill="none" stroke="black" d="M2527.88,-664.82C2735.74,-663.76 3557.62,-656.83 4231.32,-612 4246.11,-611.02 4261.64,-609.74 4276.99,-608.33"/>
<polygon fill="black" stroke="black" points="4277,-611.84 4286.62,-607.42 4276.34,-604.87 4277,-611.84"/>
</g>
</g>
</svg>
